<svg class="svg-icon" style="width: 1em; height: 1em;vertical-align: middle;fill: currentColor;overflow: hidden;" viewBox="0 0 1024 1024" version="1.1" xmlns="http://www.w3.org/2000/svg"><path d="M511.669 512.504m-450 0a450 450 0 1 0 900 0 450 450 0 1 0-900 0Z" fill="#BEE7DD" /><path d="M904.066 597.578c-4.51 0-9.053 0.027-13.614 0.056-4.603 0.027-13.229 0.053-17.847 0.053-41.278 0-79.703-4.004-106.043-23.355-21.201-10.084-40.916-29.128-51.48-60.818-16.982-50.943-55.092-175.636-84.81-205.354 22.805-19.099 32.782-75.827 24.801-98.347-28.792 14.538-100.913 30.217-112.6 45.04-21.665 0-65.522 52.952-78.865 51.469-13.344-1.483-23.351-67.829-23.351-67.829s-97.852 41.884-120.091 43.366c-3.971 0.265-6.731-1.805-8.465-5.416 10.83-6.567 21.854-19.43 26.078-35.16-1.768-13.779-7.037-20.656-14.146-25.713 0.053-0.083 0.103-0.17 0.156-0.253-0.571-0.266-1.149-0.539-1.723-0.807-13.689-8.959-33.33-12.888-48.345-44.333-4.086-8.558-20.058 8.998-22.878 33.652-2.557 22.351 4.971 48.927 20.199 64.442 5.897 6.263 13.222 10.91 22.026 13.08l3.194 0.787-1.856 2.715c-33.052 48.333-41.511 113.803-25.144 194.592l0.36 1.775-1.647 0.753c-33.927 15.497-52.638 45.994-55.615 90.647-2.255 33.834 13.722 73.883 41.696 104.518 26.524 29.045 59.88 45.495 93.921 46.316l1.665 0.04 0.469 1.599c3.364 11.461 6.071 24.587 8.938 38.482 13.987 67.81 31.394 148.196 143.654 180.199 15.525 4.425 32.799 6.67 51.346 6.67 75.803 0.004 171.151-34.546 244.538-95.701 83.539-69.618 140.554-161.281 150.019-256.949-13.209-1.359-32.125-0.216-44.54-0.216z" fill="#8AD1FF" /><path d="M314.958 261.978s-8.148 35.721 6.368 39.269c23.88 5.837 129.483-61.557 129.483-61.557s5.307 77.478 16.981 81.723c15.904 5.783 31.84-18.043 40.331-27.595s40.331-50.944 40.331-50.944-87.03-16.981-94.459-20.165-131.606 27.595-139.035 39.269zM611.336 583.298c-12.471 33.697-37.1 40.528-45.549 60.408-24.057 56.605-45.991 94.105-38.916 156.37 6.551 57.649 51.47 121.259 106.66 136.826-91.416 29.465-169.511 8.778-209.842-32.26-47.344-48.175-61.679-139.943-73.708-180.274 11.97 1.108 118.162-20.519 148.941-41.038s64.918-66.864 64.918-66.864 33.433-17.779 47.496-33.168z" fill="#78C1F7" /><path d="M503.876 682.267c-6.368 9.552-86.091 42.453-151.063 42.453-81.985 0-145.334-86.334-140.963-151.899 4.448-66.718 42.996-97.852 100.818-103.783 67.265-6.899 133.435 26.669 167.535 54.839 37.751 31.185 44.104 96.832 36.675 123.63-6.001 21.646-8.723 28.342-13.002 34.76z" fill="#4285EC" /><path d="M450.503 429.8a51.741 52.508 0 1 0 103.482 0 51.741 52.508 0 1 0-103.482 0Z" fill="#C0E9FF" /><path d="M479.465 548.539c-4.245 24.411-82.313 35.488-148.587 26.533s-108.111-25.483-95.52-57.312c11.952-30.214 66.228-53.24 131.977-41.017 66.493 12.361 116.952 44.068 112.13 71.796z" fill="#5F99F4" /><path d="M474.947 433.191a27.984 28.911 0 1 0 55.968 0 27.984 28.911 0 1 0-55.968 0Z" fill="#000013" /><path d="M299.364 666.349c-1.254-4.248 6.301 5.233 11.361 5.2 2.436-0.016 26.393-14.158 52.838-24.318 28.49-10.946 59.623-17.99 62.724-18.611 5.681-1.139-3.076-8.636 0.525-9.918 3.711-1.322 14.904 11.942 24.002 17.548 1.337 6.601-14.031 1.901-14.031 1.901s2.928 52.738-55.491 73.833c-38.208 13.797-77.052-30.164-77.052-30.164s2.307 5.558-2.771 7.88c-0.508-9.219-0.852-19.102-2.105-23.351zM402.663 537.298c-3.58 7.189-16.628 11.715-25.921 4.034-9.836-8.129-13.105-17.946-9.525-25.135s15.032-5.449 25.754-0.109c10.723 5.34 13.272 14.021 9.692 21.21z" fill="#2E56D3" /><path d="M402.929 537.298c-3.58 7.189-16.628 11.715-25.921 4.034-7.14-5.901-11.171-12.591-11.283-18.619-2.555 7.032 1.266 16.04 10.487 23.661 9.293 7.68 22.341 3.154 25.921-4.034 1.072-2.152 1.581-4.437 1.499-6.727a15.204 15.204 0 0 1-0.703 1.685z" fill="#61AAFA" /><path d="M275.28 507.206c3.336 3.336 1.505 12.931-8.34 21.683-9.15 8.134-20.104 2.89-22.795-2.78-2.887-6.083 3.336-15.011 11.333-18.76 10.731-5.029 15.096-4.85 19.802-0.143z" fill="#2E56D3" /><path d="M276.75 510.42c0.2 3.406-2.3 11.813-9.986 18.646-7.838 6.968-16.985 4.112-21.142-0.412 0.116 0.461 0.264 0.913 0.47 1.347 2.691 5.669 14.08 11.283 23.229 3.149 9.844-8.753 8.225-19.325 7.429-22.73z" fill="#61AAFA" /><path d="M311.223 675.795s26.019-14.707 54.374-25.24c29.495-10.956 61.391-17.762 62.539-18.171 2.25-0.802 2.853 1.585 2.827 6.513-0.044 8.42-5.398 54.703-52.475 69.115-26.524 8.12-60.602-17.782-66.549-24.51-3.572-4.041-3.417-6.745-0.716-7.707z" fill="#FFFFFF" /><path d="M267.618 398.755a24.278 25.082 0 1 0 48.556 0 24.278 25.082 0 1 0-48.556 0Z" fill="#000013" /><path d="M485.691 443.353c-3.509-2.005-0.303 11.144 6.368 14.328 7.783 3.715 23.88 2.653 22.288-1.592-1.592-4.245-24.941-10.613-28.656-12.736z" fill="#214CC2" /><path d="M501.433 443.881a11.675 12.736 0 1 0 23.35 0 11.675 12.736 0 1 0-23.35 0Z" fill="#FFFFFF" /><path d="M270.417 399.917c-0.99-2.58-3.748 6.757 4.743 15.955s22.104 7.977 24.581 0.902c1.241-3.55-25.358-6.516-29.324-16.857z" fill="#214CC2" /><path d="M291.463 409.846a9.694 10.576 0 1 0 19.388 0 9.694 10.576 0 1 0-19.388 0Z" fill="#FFFFFF" /><path d="M722.157 534.034c4.145-13.383 20.799 6.519 14.859 23.349-44.521 126.144-200.037 207.454-344.58 204.484-21.934-3.538-31.133-8.491-34.67-9.906-10.4-4.16-16.608-24.644-9.906-19.104 9.281 7.673 26.887 11.321 41.038 12.736 125.485 7.178 298.608-99.686 333.259-211.559z" fill="#86DAAD" /><path d="M323.316 669.399c4.024 7.562 24.278 33.83 27.197 37.014 1.857 1.327 4.511 1.725 6.235 1.857-4.776-5.307-26.135-42.453-26.135-42.453s-4.909 2.388-7.297 3.582zM353.564 655.424c4.024 7.562 22.94 48.589 25.24 52.481 0.995-0.166 2.056-0.564 2.985-0.929-1.128-1.824-21.194-54.604-21.194-54.604s-4.643 1.858-7.031 3.052zM397.51 640.278s-5.738 1.459-8.214 2.41c4.024 7.562 16.628 44.311 18.927 48.202 0.752-0.619 2.698-3.007 3.361-3.67-0.575-1.592-14.074-46.942-14.074-46.942z" fill="#C2E0FF" /><path d="M428.135 632.385c-1.147 0.409-33.044 7.214-62.539 18.171-28.354 10.533-54.374 25.24-54.374 25.24-2.701 0.962-2.856 3.665 0.716 7.707 0.039 0.044 0.092 0.097 0.133 0.143 15.065-10.895 73.365-28.529 86.201-31.891 11.144-2.919 24.941-4.245 31.853-4.52 0.63-3.812 0.828-6.749 0.837-8.336 0.026-4.93-0.576-7.316-2.827-6.514z" fill="#C2E0FF" /><path d="M375.865 821.483c2.042-1.299 15.562-9.622 16.799-10.55 1.052 3.527-2.692 20.698-2.692 20.698l-17.325 11.757c0-0.001 1.733-19.121 3.218-21.905zM383.29 971.223c-0.247-8.663 5.445-26.483 18.934-40.962-4.826 2.723-17.891 21.032-24.132 15.717-3.341-2.846-5.657-6.986-8.446-15.129-0.908 0.941-2.784 3.063-4.108 8.144 6.126 19.476 14.862 31.508 17.752 32.23z" fill="#D6E8DB" /><path d="M529.348 740.287c91.275-32.194 174.059-90.125 203.776-173.44 0-13.001-6.368-24.322-14.151-24.676-22.996 64.034-87.737 127.36-183.611 171.583l-6.014 26.533z" fill="#B8F1CA" /><path d="M268.571 179.416c0.778-8.955-13.876 13.807-12.151 38.371 3.378 48.113 28.054 53.862 39.82 60.098 4.506 2.388-0.861-6.644-0.922-10.002-0.041-2.264 10.568 6.613 10.623 2.694 0.137-9.772-5.362-18.479-9.908-25.98-9.619-15.871-31.383-20.053-27.462-65.181zM649.087 220.075c-19.581 29.776-82.134 24.194-84.581 60.958-0.425 6.388 13.468 14.596 17.65 11.191 1.65 3.757-10.367 7.26-7.387 9.488 3.456 2.584 14.09 5.57 20.053 0.816 1.696 7.734-5.225 10.24-0.368 10.855 29.532 3.738 45.361-23.433 55.042-52.928 6.525-19.876 4.272-47.498-0.409-40.38z" fill="#4285EC" /><path d="M473.615 103.946c-20.757-13.344-34.1 33.729-22.239 60.046-31.135-17.791-91.714-44.103-95.628-35.583-6.301 13.714 8.896 64.494 33.359 72.277-15.567 2.595-37.807-4.448-51.15 1.112-24.672 10.28-40.03 81.544-17.791 80.061 22.239-1.483 120.091-43.366 120.091-43.366s10.008 66.347 23.351 67.829c13.344 1.483 52.924-49.474 78.865-51.469 27.366-26.796 90.651-29.932 113.882-45.588 7.775 7.124 10.976 56.42-22.091 99.18 29.717 29.717 63.837 154.126 80.818 205.07 25.792 77.375 106.132 79.45 129.483 59.435 9.401-8.058-69.194-84.719-86.986-96.394 21.127 5.56 41.142-5.56 57.822-13.344 7.475-14.95-44.582-57.184-71.269-69.045 17.791-3.336 36.695-15.567 52.262-36.695-14.062-37.613-63.382-46.702-83.397-52.262 15.567-8.896 42.438-37.842 37.807-43.366-31.204-37.224-69.936-51.417-87.727-38.073 6.672-17.791-23.78-63.643-32.675-86.994-16.741-10.524-47.449 35.408-76.829 42.679-14.456-20.016-79.958-75.51-79.958-75.51z" fill="#4681F0" /><path d="M812.082 449.433c-12.884 5.547-57.715 13.778-72.429 9.906 0 3.538 11.321 13.444 17.926 17.217 29.481 4.01 50.291-9.829 57.822-13.344 1.66-3.32 0.212-8.151-3.319-13.779zM744.132 394.167c26.349-5.182 44.865-26.656 52.262-36.695-0.603-1.614-1.294-3.156-2.021-4.666-12.029 11.074-56.709 28.889-69.176 31.226 5.66 3.538 13.232 6.521 18.935 10.135zM693.445 304.432c7.076-1.415 13.532 0 19.552 0.778 20.69-12.453 39.813-39.241 38.07-42.916-7.922 8.647-47.539 38.158-57.622 42.138zM424.983 203.605c-16.952-5.394-52.589-55.576-56.571-75.621-6.956-1.645-11.665-1.751-12.665 0.425-3.967 8.634 2.725 53.97 31.735 73.074 11.714 0.237 27.102 3.855 37.501 2.122z" fill="#2E56D3" /><path d="M733.124 512.454c-16.981-50.944-62.872-176.002-92.59-205.719 28.506-31.357 24.516-108.895 15.964-102.053-17.288 13.831-96.067 25.086-114.596 46.751-18.244-15.964-61.83 34.317-75.173 32.834-13.344-1.483-24.057-67.925-24.057-67.925S355.14 259.151 332.9 260.633c-14.466 0.964-13.015-28.844-3.45-52.633-19.333 20.298-28.83 75.163-9.286 73.86 22.239-1.483 120.092-43.366 120.092-43.366s10.008 66.347 23.351 67.829c13.344 1.483 49.718-44.098 79.435-49.759 30.787-25.086 98.217-36.547 112.886-44.47 0 76.416-15.14 80.664-25.046 96.23 29.717 29.717 67.218 154.247 84.199 205.192 25.792 77.375 106.132 79.45 129.483 59.435 2.052-1.759 0.195-6.255-4.289-12.981-32.728 9.258-85.679 16.898-107.151-47.516zM477.342 176.718c-16.274-22.642-18.785-61.157-15.75-73.866-7.645 3.918-21.043 32.828-10.216 61.14 8.985 4.943 20.989 9.882 25.966 12.726z" fill="#2E56D3" /><path d="M626.637 136.387s-14.151 17.689-31.84 33.255c-16.797 14.781-52.948 10.826-38.208 7.076 14.739-3.751 55.189-46.699 70.048-40.331z" fill="#2E56D3" /><path d="M472.951 113.038c3.418 0 46.383 38.253 48.336 42.843s-18.004-0.876-24.84-8.526c-6.836-7.651-26.914-34.317-23.496-34.317zM392.005 140.871c2.643-0.704 43.981 20.923 46.465 24.177s-14.715 2.913-21.623-1.774-27.485-21.699-24.842-22.403zM374.38 800.073l25.988 1.485s17.078 83.162 27.896 96.703c8.145 10.196-48.686 36.578-44.974 72.962-12.252-10.024-26.678-56.414-24.477-75.357 2.202-18.942 15.567-95.793 15.567-95.793z" fill="#FFFFFF" /><path d="M355.074 762.205c-0.557-2.784 6.495-16.703 8.351-22.272 1.856-5.569 35.457-0.375 38.798 3.338 3.341 3.713 13.365 14.665 12.994 16.707-0.371 2.042-9.776 35.022-11.385 41.086s-24.998 4.579-30.938-0.247-17.263-35.827-17.82-38.612z" fill="#86DAAD" /><path d="M404.576 820.988l4.579 19.553s-43.313 31.433-47.892 38.487c0.495-3.713 4.95-30.691 4.95-30.691l38.363-27.349zM414.6 861.331c0.619 2.228 4.068 13.158 5.198 16.83 2.475 8.044-54.699 42.323-52.966 62.371-2.228-5.693-8.02-28.467-7.796-33.537 0.37-8.414 53.707-39.971 55.564-45.664z" fill="#B8F1CA" /><path d="M361.015 880.76s-0.605 10.556 0.495 19.305c1.454 11.571 9.993 40.529 16.49 49.625 4.765 6.671 9.281-6.033 14.201-7.425-5.94 7.425-9.405 24.008-9.653 26.607-3.465-0.866-14.603-15.593-20.295-42.323-2.699-12.672-5.879-25.493-1.238-45.789z" fill="#86DAAD" /><path d="M361.51 900.065c-1.1-8.75-0.495-19.305-0.495-19.305-2.285 9.992-2.669 18.167-2.153 25.41l3.01-3.699a54.895 54.895 0 0 1-0.362-2.406z" fill="#D6E8DB" /><path d="M355.074 762.205s13.922 26.174 20.234 30.814c6.311 4.641 28.525 8.044 28.525 8.044s-0.55 2.848-6.621 3.836c-7.982 1.299-21.523-1.29-25.06-4.641-7.054-6.682-17.078-38.053-17.078-38.053z" fill="#70CD9B" /><path d="M402.224 743.271l-44.458 23.76 7.147 12.066 48.82-22.461zM407.731 786.399l-21.471 11.076 17.573 3.588z" fill="#FFFFF9" /><path d="M373.487 801.304l12.773-3.829 17.573 3.589s-0.284 2.323-5.683 3.448c-5.232 1.089-18.404 0.778-24.663-3.208zM362.221 781.882l2.692-2.785-7.147-12.066-0.835 1.021z" fill="#D6E8DB" /><path d="M392.949 809.65l-22.647 14.479s2.63-14.943 3.125-17.666c4.394 2.259 19.522 3.187 19.522 3.187z" fill="#B8F1CA" /><path d="M373.251 867.884c-0.371 3.094 1.577 9.324 1.639 7.839 0.186-4.462 2.8-4.887 3.848-12.151l-5.487 4.312z" fill="#D6E8DB" /><path d="M373.251 867.884l5.487-4.312-0.014 0.083c5.315-11.85 14.313-32.326 14.225-54.006-1.052 0-10.358-0.927-12.679-1.344-8.342 15.914-8.274 46.4-7.04 59.863 0.008-0.094 0.011-0.194 0.021-0.284z" fill="#86DAAD" /><path d="M951.343 593.505c-14.028-1.603-34.031-0.487-47.277-0.487-4.519 0-9.071 0.027-13.641 0.056-4.594 0.027-13.211 0.053-17.821 0.053-31.113 0-60.838-1.494-84.276-11.51-13.965-2.893-28.399-9.075-41.164-19.627 29.875 27.627 76.502 37.009 125.44 35.698 4.617-0.124 13.244-0.027 17.847-0.053 4.561-0.029 9.104-0.056 13.614-0.056 12.416 0 31.332-1.143 44.536 0.215-9.465 95.668-66.48 187.331-150.019 256.949-73.386 61.155-168.735 95.706-244.538 95.701-18.547 0-35.821-2.245-51.346-6.67-30.433-8.676-53.883-20.913-72.196-35.485 3.422-4.661 4.517-8.878 1.325-12.874-7.051-8.826-18.908-56.466-25.893-89.508 1.148-1.022 1.929-2.246 2.308-3.674 0.646-2.433 2.605-9.406 4.679-16.788 2.647-9.42 4.366-15.56 5.415-19.387l-0.003 0.01c65.885-3.077 132.531-22.68 189.51-55.999 65.104-38.071 112.506-91.757 133.475-151.167 3.683-10.434 0.117-21.023-4.055-26.92-3.149-4.451-6.946-6.903-10.689-6.903-1.929 0-6.646 0.741-8.773 7.606-15.508 50.07-60.947 102.589-124.666 144.092-61.074 39.78-128.698 63.12-186.541 64.53l0.008 0.009-0.324-0.36-0.663-0.736c-0.749-0.832-2.737-3.041-14.097-5.268-6.457-1.266-13.49-2.021-18.813-2.021h-0.003c-3.872 0-8.246 0.325-11.059 2.257-3.377-1.264-6.285-2.675-8.638-4.21 1.453 0.068 2.67 0.111 3.344 0.111 74.294-1.061 134.79-29.717 158.21-51.439 26.397-19.798 42.913-46.734 50.873-58.409 6.368-2.653 26.223-15.154 33.432-21.757 8.501-7.787 16.961-18.268 14.328-20.961-2.633-2.694-19.104 22.819-49.087 35.555-7.325 3.193-30.779 44.045-47.229 54.128 18.043-59.169 1.932-117.94-33.971-147.599-31.676-26.167-90.534-56.724-152.164-56.724-6.232 0-12.459 0.315-18.508 0.935-16.401 1.682-30.986 5.356-43.692 10.938-15.368-79.089-6.686-143.309 25.86-190.902l1.856-2.715-3.194-0.787c-30.827-7.599-43.595-45.48-39.958-77.264 2.367-20.698 13.459-33.826 17.508-33.826 0.23 0 0.617 0 1.046 0.898 11.845 24.808 33.016 35.263 52.126 44.159a56.179 56.179 0 0 1 2.671-3.788c-18.607-8.649-39.383-18.673-50.682-42.335-1.076-2.254-2.909-3.494-5.161-3.494-8.021 0-19.641 16.891-22.04 37.868-3.736 32.652 9.182 71.453 40.299 81.339-31.959 48.583-40.229 113.426-24.601 192.83-9.474 4.649-18.242 12.212-25.393 19.135-18.806 18.206-29.053 42.478-31.265 75.667-2.381 35.708 14.526 77.542 44.122 109.176 24.662 26.361 57.498 44.011 89.655 48.302a6.183 6.183 0 0 0-0.739 1.97c-1.031 5.356 4.274 16.874 11.887 22.255-1.742 4.422-2.331 6.884-1.937 8.857 0.434 2.168 10.522 31.076 17.926 39.759-2.453 14.926-12.286 75.626-14.245 92.482-2.285 19.664 12.186 68.013 26.119 79.413a4.56 4.56 0 0 0 7.425-3.993c-1.995-19.556 16.57-36.873 30.125-49.517 3.686-3.438 7.11-6.634 9.822-9.643 18.75 15.066 42.705 27.732 73.674 36.561 15.93 4.541 33.625 6.844 52.596 6.844h0.007c77.983 0 172.163-34.018 247.451-96.759 85.121-70.934 142.855-164.575 151.855-262.267l0.205-2.223-2.218-0.253zM410.52 745.723c122.927-5.019 278.936-106.112 311.637-211.689 0.953-3.076 2.567-4.394 4.416-4.394 6.193 0 15.018 14.782 10.443 27.744-41.746 118.281-181.083 197.139-317.455 204.061v0.002c0.071-0.294 0.119-0.511 0.145-0.654 0.468-2.572-0.296-4.901-9.19-15.075l0.004 0.005z m-156.468-68.585c-27.974-30.635-43.951-70.685-41.696-104.518 2.978-44.653 28.817-79.575 55.03-91.711 15.393-7.127 29.263-10.227 45.282-11.87a177.284 177.284 0 0 1 18.075-0.913c60.819 0 118.422 30.111 149.46 55.752 37.751 31.185 44.329 96.432 36.056 124.78-2.565 11.056-10.159 32.155-12.382 33.609-27.557 18.019-87.748 41.392-152.302 41.392-0.64 0-3.601-0.205-3.601-0.205-34.042-0.821-67.398-17.27-93.922-46.316z m91.963 54.776c0.445 0 1.055 0.292 1.844 0.944 2.962 2.448 6.776 4.483 11.05 6.17l-3.108 7.471a563.69 563.69 0 0 0-1.474 3.415c-7.131-5.654-11.21-17.999-8.312-18z m9.059 30.291c-0.557-2.785 6.495-16.703 8.351-22.272 0.585-1.755 4.326-2.441 9.277-2.442 10.757 0 27.233 3.237 29.522 5.779 3.341 3.713 13.365 14.665 12.994 16.707-0.371 2.042-9.776 35.022-11.385 41.086-0.741 2.794-6.108 3.986-12.261 3.986-7.199 0-15.475-1.631-18.677-4.233-5.94-4.826-17.264-35.826-17.821-38.611z m28.216 209.018c-12.252-10.024-26.678-56.414-24.477-75.357 1.819-15.657 11.265-70.873 14.488-89.557 4.978 2.262 12.279 3.3 18.271 3.3 4.131 0 7.546-0.473 10.205-1.391 4.305 19.997 17.537 78.841 26.487 90.043 8.145 10.197-48.686 36.579-44.974 72.962z" fill="#2E56D3" /></svg>