<svg class="svg-icon" style="width: 1em; height: 1em;vertical-align: middle;fill: currentColor;overflow: hidden;" viewBox="0 0 1024 1024" version="1.1" xmlns="http://www.w3.org/2000/svg"><path d="M511.669 512.504m-450 0a450 450 0 1 0 900 0 450 450 0 1 0-900 0Z" fill="#B4E8DB" /><path d="M391.065 369.404c-3.387-2.227-6.593-4.426-9.655-6.527-7.67-5.261-14.295-9.805-20.638-12.688l-1.909-0.868 1.781-1.108c16.632-10.362 24.616-36.733 18.177-60.038-5.95-21.535-22.577-34.911-43.393-34.911a52.5 52.5 0 0 0-8.846 0.77c-10.312 1.771-20.547 8.865-27.493 18.898-8.6 12.423-10.145 24.36-7.601 37.908 1.402 7.467 6.584 22.683 16.133 30.688-12.402-0.076-22.902 5.807-31.094 15.219-13.71 15.752-16.642 49.379-0.387 64.712 9.619 9.074 21.959 14.279 33.857 14.279 8.412 0 20.374-2.613 29.596-15.065 7.751-10.463 10.75-25.555 8.911-44.854l-0.214-2.246 1.921 1.183c6.302 3.877 13.649 8.829 20.131 13.197 4.64 3.126 8.648 5.826 11.403 7.548 0.493 0.307 0.963 0.464 1.401 0.464h0.001c0.689 0 1.4-0.396 2.113-1.177 3.975-4.348 6.287-18.168 5.805-25.384z m-82.095 46.428c-13.885 0-25.183-12.041-25.183-26.843 0-14.801 11.297-26.843 25.183-26.843s25.184 12.041 25.184 26.843c-0.001 14.802-11.298 26.843-25.184 26.843z m27.378-82.965c-13.885 0-25.183-12.041-25.183-26.843 0-14.801 11.297-26.843 25.183-26.843s25.184 12.041 25.184 26.843c-0.001 14.802-11.298 26.843-25.184 26.843z" fill="#2DCB92" /><path d="M361.237 349.166c17.189-10.709 25.215-36.297 18.682-59.942-6.977-25.25-28.732-38.792-54.134-34.43-14.644 2.515-25.526 17.752-28.015 33.186-3.111 19.289 1.698 35.987 29.556 58.386 23.4 18.814 46.46 31.941 57.971 38.475 2.489-2.8 7.149-12.727 6.845-16.074-12.03-7.882-21.779-15.453-30.905-19.601z m-24.889-17.422c-13.288 0-24.06-11.515-24.06-25.719s10.272-25.444 23.56-25.444c13.288 0 24.559 11.239 24.559 25.444 0.001 14.204-10.771 25.719-24.059 25.719z" fill="#54D99D" /><path d="M151.015 393.02c-40.208 0-72.506 45.277-75.13 105.319-0.73 37.136-1.544 93.831-0.788 97.599 0.835 2.916 2.156 4.639 6.396 4.639h0.001c0.461 0 0.949-0.022 1.468-0.064 4.565-0.384 126.574-22.316 139.392-25.596 3.833-0.981 4.002-3.072 4.002-7.333 0-4.04 0.296-82.621 0.3-83.414-1.884-49.15-36.385-90.934-75.338-91.148l-0.303-0.002z" fill="#5DDAB1" /><path d="M149.627 391.154c-41.099 1.138-71.402 46.832-74.148 96.413-0.362 6.537-0.851 100.46-0.851 100.46l137.376-25.519s-0.61-67.47 0.313-87.55c1.515-32.991-27.678-84.773-62.69-83.804z" fill="#558769" /><path d="M212.369 471.807c4.97 2.268 9.669 4.876 13.963 7.891-2.323-29.336-20.16-78.745-66.222-87.268 29.102 7.827 51.928 49.818 52.259 79.377zM147.614 391.247c-31.337 0.314-57.292 30.388-68.173 69.598 0.102-0.076 0.205-0.141 0.307-0.216 9.892-37.299 35.353-67.317 67.866-69.382z" fill="#3DC198" /><path d="M75.145 534.177l60.631 99.557 70.081-99.225 68.624 130.337 87.423-149.08 1.089-28.696-92.072 132.852-65.439-117.272-67.867 106.195-62.074-101.217z" fill="#92E6AC" /><path d="M363.704 484.939a2.247 2.247 0 0 0-2.558 0.851l-90.02 129.89-40.196-72.035c0.088-24.475 0.217-58.966 0.218-59.553-1.975-51.574-38.522-95.338-79.806-95.565l-0.328-0.001c-42.661 0-76.89 47.124-79.621 109.67-0.31 15.799-1.803 94.817-0.632 98.913 0.975 3.416 3.149 7.961 10.732 7.961h0.001c0.578 0 1.19-0.026 1.842-0.081 2.048-0.171 13.616-2.148 29.295-4.938l21.225 34.852a2.249 2.249 0 0 0 1.843 1.077l0.077 0.001c0.728 0 1.413-0.353 1.835-0.951l32.04-45.364c26.468-4.91 49.751-9.356 53.817-10.396a11.665 11.665 0 0 0 2.832-1.108l46.192 87.731a2.247 2.247 0 0 0 1.937 1.2l0.052 0.001c0.796 0 1.534-0.422 1.938-1.11l87.423-149.08c0.187-0.32 0.293-0.681 0.307-1.052l1.089-28.695a2.247 2.247 0 0 0-1.534-2.218zM151.015 393.02l0.304 0.001c38.953 0.214 73.454 41.998 75.338 91.148-0.002 0.469-0.106 28.109-0.191 51.474l-19.021-34.088a2.248 2.248 0 0 0-1.895-1.151l-0.067-0.001c-0.765 0-1.48 0.39-1.893 1.037l-56.067 87.731a9517.97 9517.97 0 0 1-17.407 3.145S76.89 505.345 75.837 503.87c0-0.772 0.005-3.252 0.049-5.532 2.622-60.041 34.921-105.318 75.129-105.318z m-6.801 201.327l-6.559 10.264-5.004-8.16c3.786-0.686 7.649-1.389 11.563-2.104z m-61.251 6.166c-0.519 0.042-1.007 0.064-1.468 0.064h-0.001c-4.24 0-5.561-1.722-6.396-4.639-0.508-2.533-0.306-28.997 0.102-57.352l34.898 57.303c-15.054 2.665-25.839 4.514-27.135 4.624z m139.392-25.597c-4.839 1.238-25.249 5.136-49.016 9.528l32.237-45.644 18.624 35.372a6.936 6.936 0 0 1-1.845 0.744z m139.549-59.15l-87.423 149.08-68.625-130.337-35.681 50.519-3.69 5.225-30.71 43.481-20.771-34.106-2.533-4.159-37.211-61.101-0.116-0.191 0.396-26.548 0.163 0.265 61.912 100.951 67.867-106.194 20.967 37.575 4.465 8.002 40.006 71.695 92.073-132.852-1.089 28.695z" fill="#159B71" /><path d="M308.97 362.147c-14.549-0.114-25.183 12.041-25.183 26.843s11.297 26.843 25.183 26.843 25.184-12.041 25.184-26.843-11.298-26.735-25.184-26.843z m0.056 51.003c-14.415-2.136-19.546-15.903-18.959-25.138 0.904-14.211 10.813-24.716 23.139-23.181 9.731 1.212 18.701 12.149 18.701 24.158-0.001 13.562-11.506 25.846-22.881 24.161zM336.348 279.182c-12.265 0-22.497 9.4-24.721 21.793-1.702 6.481-0.419 12.572 2.454 17.551 4.226 8.517 12.616 14.34 22.266 14.34 13.886 0 25.184-12.041 25.184-26.843s-11.297-26.841-25.183-26.841z m0 51.438c-3.558 0-5.851-0.199-8.644-2.011-10.392-6.741-12.496-22.018-5.898-33.283 5.758-9.83 23.172-13.762 32.777-4.161 2.649 2.648 4.702 9.274 4.702 14.86-0.001 13.561-10.29 24.595-22.937 24.595z" fill="#009B71" /><path d="M872.001 284.967c-52.891-55.818-127.443-86.557-209.928-86.557-80.31 0-155.914 31.838-212.881 89.649-21.67 21.99-39.845 47.001-54.288 74.336-4.688-2.799-17.154-10.264-21.415-13.021 9.956-6.845 27.255-38.489 10.247-71.882-6.663-13.083-21.84-20.034-30.814-23.133-5.371-2.161-11.243-3.341-17.494-3.341-3.018 0-6.122 0.27-9.226 0.803-10.898 1.871-21.727 9.288-28.966 19.842-7.936 11.566-10.76 25.638-7.952 39.622 1.068 5.319 4.836 18.759 13.421 28.56-11.206 2.281-19.41 5.706-27.873 15.43-14.64 16.818-17.866 51.413-0.354 68.268 11.235 10.813 23.452 15.448 38.057 14.745 12.62 0 21.299-5.148 28.929-15.448 7.784-10.51 10.922-26.183 9.468-44.987 5.813 3.65 12.333 8.043 18.153 11.965 3.989 2.687 7.504 5.056 10.185 6.776-16.722 42.771-25.154 89.967-24.426 139.439 0.058 3.932-0.752 5.593-1.442 6.293-0.304 0.309-0.846 0.72-2.033 0.72-12.288 0-46.65-37.474-59.585-51.581-2.447-2.668-4.427-4.827-5.781-6.243l-1.009-1.058c-4.729-4.959-7.583-7.953-11.326-7.953-0.493 0-0.992 0.057-1.487 0.168-1.569 0.354-2.625 1.642-3.314 3.139-1.285-1.177-2.953-1.969-4.53-1.596-2.413 0.565-4.844 3.358-6.029 6.996-1.181-1.032-2.534-1.701-4.013-1.701-1.034 0-2.037 0.341-2.905 0.985-10.41 7.739-19.427 27.86-14.628 53.745 8.872 47.853 55.622 139.554 94.381 185.126 78.347 92.122 199.229 144.956 331.653 144.956 7.886 0 15.836-0.2 23.628-0.595 88.611-4.5 157.222-38.997 203.923-102.536 43.394-59.037 66.331-143.51 66.331-244.282 0-95.7-29.28-177.187-84.677-235.649zM370.342 387.956c-6.482-4.369-13.829-9.32-20.131-13.197l-1.921-1.183 0.214 2.246c1.839 19.3-1.16 34.391-8.911 44.854-9.223 12.451-21.185 15.065-29.596 15.065-11.897 0-24.238-5.205-33.857-14.279-16.255-15.334-13.323-48.961 0.387-64.712 8.192-9.412 22.214-14.634 31.473-14.999-0.946-0.698-2.28-2.089-2.28-2.089-9.539-9.538-13.131-23.332-14.232-28.82-2.687-13.383 0.012-26.846 7.601-37.908 6.904-10.062 17.181-17.127 27.493-18.898a52.5 52.5 0 0 1 8.846-0.77c20.816 0 37.443 13.376 43.393 34.911 1.503 5.438 2.19 11.04 2.195 16.57-0.163 11.788-3.349 22.017-7.658 29.911-3.311 5.66-7.599 10.37-12.714 13.557l-1.781 1.108 1.909 0.868c6.344 2.883 12.968 7.428 20.638 12.688 3.062 2.101 6.268 4.3 9.655 6.527-0.404 0.975-0.954 2.278-1.591 3.772a332.927 332.927 0 0 0-9.253 21.014c-1.966-0.986-5.242-3.113-9.879-6.236z m516.385 374.283c-45.865 62.399-113.332 96.283-200.53 100.708-7.715 0.393-15.588 0.59-23.4 0.59-131.103 0-250.738-52.257-328.23-143.372-38.367-45.114-84.623-135.777-93.385-183.037-4.25-22.926 3.267-42.163 12.89-49.318 0.132-0.098 0.194-0.098 0.224-0.098 0.581 0 2.277 1.317 3.561 4.36l6.695 15.859-2.399-17.046c-0.608-4.316 1.899-7.989 3.056-8.531 0.645 0.309 2.025 1.845 2.691 3.389l5.05 11.709-0.744-12.729c-0.066-1.14 0.588-3.417 1.126-3.989 0.115-0.019 0.226-0.027 0.338-0.027 1.818 0 4.306 2.61 8.073 6.561l1.015 1.063c1.34 1.4 3.297 3.534 5.716 6.172 25.259 27.547 50.362 53.038 62.898 53.038 2.126 0 3.887-0.693 5.233-2.06 1.906-1.933 2.801-5.045 2.735-9.512-0.721-49.061 7.67-95.844 24.304-138.201 1.423-1.898 4.871-9.669 7.237-17.024 15.297-33.336 35.935-63.573 61.513-89.53 56.116-56.948 130.581-88.31 209.68-88.31 81.239 0 154.633 30.242 206.668 85.154 54.589 57.612 83.444 138.03 83.444 232.561-0.002 99.809-22.635 183.36-65.459 241.62z" fill="#009B71" /><path d="M254.296 487.713c-0.03 0-0.092 0-0.224 0.098-9.623 7.156-17.141 26.393-12.89 49.318 8.762 47.26 55.018 137.923 93.385 183.037 77.492 91.115 197.127 143.372 328.23 143.372 7.812 0 15.685-0.198 23.4-0.59 87.198-4.426 154.666-38.31 200.53-100.708 42.823-58.26 65.457-141.811 65.457-241.62 0-94.531-28.855-174.949-83.444-232.561-52.035-54.913-125.429-85.154-206.668-85.154-79.099 0-153.564 31.362-209.68 88.31-61.41 62.32-94.458 149.242-93.054 244.755 0.066 4.468-0.829 7.579-2.735 9.512-1.346 1.367-3.107 2.06-5.233 2.06-12.536 0-37.638-25.491-62.898-53.038-2.419-2.639-4.376-4.773-5.716-6.172l-1.015-1.063c-3.766-3.951-6.255-6.561-8.073-6.561-0.112 0-0.223 0.009-0.338 0.027-0.538 0.573-1.191 2.849-1.126 3.989l0.744 12.729-5.05-11.709c-0.666-1.544-2.046-3.08-2.691-3.389-1.156 0.542-3.663 4.215-3.056 8.531l2.399 17.046-6.695-15.859c-1.282-3.044-2.978-4.36-3.559-4.36z" fill="#2DCB92" /><path d="M662.864 203.643c-105.169 0-200.743 56.079-255.137 147.843-12.512 67.59 135.59 187.501 293.874 176.998 30.345-2.014 69.413-33.765 97.893-36.242s45.361 31.962 72.05 30.486c30.123-1.666 54.037-14.227 79.104-42.372-16.086-172.005-135.239-276.713-287.784-276.713z" fill="#54D99D" /><path d="M869.351 366.849c-38.719 0-70.559 39.235-74.352 89.493-9.604-47.776-46.933-83.398-91.52-83.398-51.87 0-93.918 48.21-93.918 107.68s42.049 107.679 93.918 107.679c48.765 0 88.845-42.612 93.469-97.13 8.258 43.02 37.543 74.825 72.403 74.825 41.273 0 74.731-44.581 74.731-99.575s-33.459-99.574-74.731-99.574z" fill="#F1FFFF" /><path d="M490.9 528.695c-26.32 13.652-62.107 2.692-92.404-38.072-13.001-17.493-19.136 6.538-14.112 19.421-11.64-10.191-20.739 6.937-12.397 32.881 12.118 37.688 51.397 45.983 78.013 39.226 24.237-6.154 40.332-47.303 40.9-53.456z" fill="#00B67B" /><path d="M490.9 528.695c-35.787 2.5-55.291 1.923-74.983-46.533-10.951-26.946-20.198 9.23-6.059 27.689 21.207 27.689 49.799 30.766 74.983 22.113 2.807-0.965 6.059-3.269 6.059-3.269z" fill="#009B71" /><path d="M489.645 533.508c0.739-2.214 1.171-3.904 1.255-4.814-30.203 2.11-48.808 2.027-65.716-27.178 16.887 32.376 35.003 33.884 64.461 31.992zM386.873 514.606c-5.023-12.883 1.111-36.914 14.112-19.421 1.864 2.508 3.749 4.9 5.651 7.184-4.201-15.749 1.19-32.579 8.529-21.956-8.522-18.9-15.682-0.092-11.018 17.393a165.416 165.416 0 0 1-5.651-7.184c-13.001-17.493-19.136 6.538-14.112 19.421-11.64-10.191-20.739 6.937-12.397 32.881-0.379-22.644 3.247-38.509 14.886-28.318z" fill="#A4F6BB" /><path d="M694.39 487.46a44.705 57.771 0 1 0 89.41 0 44.705 57.771 0 1 0-89.41 0Z" fill="#325664" /><path d="M828.234 483.7a36.629 49.225 0 1 0 73.258 0 36.629 49.225 0 1 0-73.258 0Z" fill="#325664" /><path d="M899.899 712.904c-3.648 38.278-62.908 116.909-133.303 116.909-51.504 0-93.918-26.151-98.223-78.069-4.827-58.223 60.89-124.915 131.237-127.56 73.195-2.753 104.834 41.033 100.289 88.72z" fill="#C8F1C8" /><path d="M854.772 501.206c15.012-17.59-61.887 7.753-66.294 38.102-4.407 30.35 28.55 73.883 49.313 77.825 13.292 2.523-20.344-41.096-18.258-57.932 2.084-16.834 26.14-47.334 35.239-57.995z" fill="#FEAA4F" /><path d="M809.253 556.911c-0.076 19.625 14.652 50.471 30.506 58.204 0.211 0.103 0.327-0.084 0.513-0.09 0.542-11.537-22.566-41.077-20.74-55.823 2.085-16.835 26.141-47.335 35.24-57.996 0.856-1.003 1.334-1.828 1.623-2.559-0.143-7.269-47.056 35.732-47.142 58.264z" fill="#FE7A41" /><path d="M356.587 554.974c-2.994 20.254-12.55 43.915-36.61 42.256-47.154-3.252-66.179-41.897-69.083-80.89-0.186-2.492-0.415-13.689 3.319-19.497 2.34-3.639 9.343 9.904 11.615 14.519-0.757-3.846-3.147-20.478 0.83-22.4 2.304-1.114 8.594 14.704 9.541 16.178-2.489-7.882-1.384-17.559 0.415-17.423 3.787 0.288 7.702 6.315 14.519 14.519 8.982 10.811 35.257 44.533 65.454 52.738z" fill="#00B67B" /><path d="M681.802 473.445a17.168 18.459 0 1 0 34.336 0 17.168 18.459 0 1 0-34.336 0Z" fill="#FFFFFF" /><path d="M885.797 454.986a13.633 18.459 0 1 0 27.266 0 13.633 18.459 0 1 0-27.266 0Z" fill="#FFFFFF" /><path d="M811.327 547.928c0.602-1.292 11.823-0.839 11.823-0.839l8.616 8.767 20.8-16.445s-16.476 28.054-19.742 27.78c-3.266-0.274-6.484-7.267-12.735-10.502-3.942-2.04-10.446 0.691-10.706-0.523-0.561-2.623 0.753-5.681 1.944-8.238z" fill="#FD3B53" /><path d="M849.478 495.755c-15.637 2.192-52.013 18.966-59.665 38.961 5.919 2.274 21.755 0.147 31.49-13.23 13.126-18.034 27.881-24.248 28.175-25.731z" fill="#FEC477" /><path d="M316.047 438.007c16.431-0.281 32.427-11.683 37.636-27.104 5.185-15.348 3.839-27.806 2.528-30.802-1.498-1.311-6.589-4.387-6.589-4.387s1.302 19.624-2.696 31.527c-4.459 13.275-15.15 26.553-30.879 30.766z" fill="#009B71" /><path d="M658.042 385.567c-7.154 3.236-21.886 15.771-13.689 13.378 1.456-0.425 3.8-1.72 5.289-2.178 11.909-3.657 21.467-7.467 21.467-7.467s-4.978 12.134 3.733 12.756c8.711 0.622 40.361-16.384 46.667-24.267 7.468-9.334-50.4 1.867-63.467 7.778zM898.224 381.939s8.001 2.429 14 3.317c0-1.244-9.333-9.333-19.289-11.511-16.438-3.596-55.068-7.156-47.601 2.178 6.307 7.883 48.845 14.728 57.557 14.106s-4.667-8.09-4.667-8.09z" fill="#C0D5BB" /><path d="M894.18 368.144c-16.438-3.596-56.001-4.044-48.534 5.289 6.307 7.883 48.534 11.822 57.245 11.2 8.711-0.622-4.667-8.089-4.667-8.089s19.6 5.6 24.889 3.733c5.289-1.866-18.978-9.955-28.933-12.133zM657.109 380.9c-7.154 3.236-36.401 14.622-31.112 16.489 5.289 1.867 46.045-12.756 46.045-12.756s-4.978 12.133 3.733 12.756c8.711 0.622 39.739-14.517 46.045-22.4 7.468-9.334-51.644 0-64.711 5.911z" fill="#90EEB1" /><path d="M317.073 690.15c131.913 121.958 278.76 163.025 471.652 150.58-34.845 19.911-161.781 32.356-258.849 0-146.494-48.831-207.825-134.402-212.803-150.58z" fill="#4DD5A1" /></svg>