<svg class="svg-icon" style="width: 1em; height: 1em;vertical-align: middle;fill: currentColor;overflow: hidden;" viewBox="0 0 1024 1024" version="1.1" xmlns="http://www.w3.org/2000/svg"><path d="M511.669 512.504m-450 0a450 450 0 1 0 900 0 450 450 0 1 0-900 0Z" fill="#F5E2BC" /><path d="M233.792 398.915c-1.911-8.025-7.195-18.385-13.756-30.57-0.915-1.7-14.376 0.095-15.667-2.675-0.706-1.515 7.838-12.969 7.069-14.712-7.902-17.91-40.787-60.233-33.818-60.471 58.752-2.006 128.24-62.279 115.019-63.91-16.424-2.027-22.492 1.007-31.865-1.804-9.373-2.812 64.034-82.62 63.097-86.369-0.937-3.749-105.044 15.346-116.223 35.617-56.515 102.47-47.949 191.264-45.137 199.699 2.812 8.436 62.11 43.155 65.931 43.538 3.822 0.381 7.261-10.318 5.35-18.343z" fill="#FF4A3B" /><path d="M245.15 444.501l-2.295-1.711a2228.89 2228.89 0 0 1-30.28-22.988c-23.132-17.891-50.406-39.863-52.238-45.358-3.091-9.274-10.882-99.657 45.305-201.532 5.95-10.789 33.896-20.151 56.292-26.106 24.762-6.583 51.262-11.17 59.558-11.17 1.416 0 4.053 0 4.606 2.21 0.542 2.171-0.911 4.367-22.055 29.741-14.195 17.033-40.181 48.216-41.731 55.216 3.847 0.85 10.537 0.249 17.743-0.553 5.393-0.6 11.505-1.278 17.484-1.278 2.844 0 5.417 0.147 7.869 0.449 3.252 0.402 3.976 2.659 4.137 3.61 1.402 8.302-21.871 28.115-29.035 33.989-12.252 10.044-37.963 29.432-72.508 46.421-2.688 1.321-0.356 17.329 10.891 42.817 0.807 1.828-0.308 4.096-2.702 8.645-0.636 1.209-1.517 2.884-1.957 3.94 1.242 0.298 3.689 0.329 5.123 0.347 3.566 0.045 6.142 0.077 7.184 2.013 6.454 11.985 30.618 51.037 30.861 51.43l0.64 1.033-12.892 28.835z m71.563-302.373c-18.445 0.8-97.89 16.378-107.057 32.999-55.409 100.465-38.201 184.995-35.188 194.03 1.799 5.049 43.419 41.747 54.883 46.715 2.882 1.249 5.684-5.732 3.009-14.903-2.605-8.933-8.884-20.396-10.413-25.746s-20.854-2.489-19.488-8.407c0.929-4.023 5.328-10.318 4.968-12.228-0.36-1.91-38.12-64.289-29.806-64.101 63.337 1.433 114.255-57.796 115.019-60.853 0.854-3.418-7.079-2.525-12.61-1.911-4.772 0.53-16.431 3.821-21.781 4.585s-14.903 3.439-14.139-2.675 16.195-25.963 51.969-64.961c8.603-9.378 17.384-17.967 20.634-22.544z" fill="#FF0000" /><path d="M326.648 138.689c0.836-2.136-7.26 0.764-9.935 3.439-2.675 2.675-44.326 48.53-50.058 55.026-5.732 6.496-21.489 22.844-22.689 28.277-0.812 3.678-0.251 6.914 1.039 6.198 2.432-1.351 17.305-8.825 17.305-8.825s63.022-80.754 64.338-84.115z" fill="#DC0000" /><path d="M233.951 178.267c-11.868 5.934-12.664 19.651-9.42 18.792 3.243-0.86 16.713-15.189 17.86-18.055 1.146-2.867 3.428-6.671-8.44-0.737zM248.982 172.985c3.243-0.86 5.159-2.866 7.738-5.015 2.568-2.14-0.716-3.582-5.159-2.149-8.359 2.695-5.823 8.023-2.579 7.164zM266.937 193.162c-2.916 2.151-23.953 24.309-20.315 26.889 3.427-4.265 5.44-7.361 8.767-11.258 3.029-3.55 11.968-13.772 13.103-14.855 1.133-1.084 1.361-2.927-1.555-0.776zM254.513 233.52c-3.592 1.405-4.932 0.879-7.226 0.552-2.613-0.372-1.915 3.174 1.119 3.822 5.711 1.218 8.145-5.171 6.107-4.374z" fill="#FFEBE2" /><path d="M782.442 395.476c1.911-8.025 7.195-18.385 13.756-30.57 0.915-1.7 14.376 0.095 15.667-2.675 0.706-1.515-7.838-12.969-7.069-14.712 7.902-17.91 40.787-60.233 33.818-60.471-58.752-2.006-128.24-62.279-115.019-63.91 16.424-2.027 22.492 1.007 31.865-1.804 9.373-2.812-64.034-82.62-63.097-86.369 0.937-3.749 105.044 15.346 116.223 35.617 56.515 102.47 47.949 191.264 45.137 199.699-2.812 8.436-62.11 43.155-65.931 43.538-3.822 0.381-7.261-10.318-5.35-18.343z" fill="#FF4A3B" /><path d="M758.195 412.227l0.64-1.033c0.243-0.393 24.407-39.445 30.861-51.43 1.042-1.936 3.618-1.968 7.184-2.013 1.434-0.018 3.881-0.049 5.123-0.347-0.44-1.056-1.321-2.73-1.957-3.94-2.395-4.549-3.51-6.817-2.703-8.645 11.247-25.488 13.578-41.496 10.891-42.817-34.545-16.99-60.256-36.377-72.508-46.421-7.165-5.874-30.437-25.687-29.035-33.989 0.16-0.952 0.884-3.208 4.137-3.61 2.452-0.302 5.025-0.449 7.869-0.449 5.979 0 12.092 0.678 17.484 1.278 7.206 0.802 13.896 1.403 17.743 0.553-1.549-7-27.535-38.183-41.731-55.216-21.144-25.374-22.597-27.57-22.055-29.741 0.553-2.21 3.19-2.21 4.606-2.21 8.296 0 34.795 4.588 59.558 11.17 22.396 5.955 50.342 15.317 56.292 26.106 56.187 101.875 48.396 192.258 45.305 201.532-1.832 5.495-29.106 27.467-52.238 45.358a2228.89 2228.89 0 0 1-30.28 22.988l-2.295 1.711-12.891-28.835z m-38.039-250.993c35.774 38.998 51.205 58.847 51.969 64.961 0.764 6.114-8.789 3.439-14.139 2.675-5.35-0.764-17.009-4.056-21.781-4.585-5.531-0.615-13.465-1.507-12.61 1.911 0.764 3.057 51.682 62.286 115.019 60.853 8.314-0.188-29.445 62.191-29.806 64.101s4.039 8.205 4.968 12.228c1.366 5.918-17.96 3.057-19.488 8.407s-7.807 16.812-10.413 25.746c-2.675 9.171 0.127 16.152 3.009 14.903 11.464-4.968 53.083-41.666 54.883-46.715 3.013-9.035 20.22-93.565-35.188-194.03-9.168-16.621-88.612-32.199-107.057-32.999 3.249 4.575 12.03 13.165 20.634 22.544z" fill="#FF0000" /><path d="M782.283 174.828c11.868 5.934 12.664 19.651 9.42 18.792-3.243-0.86-16.713-15.189-17.86-18.055-1.145-2.867-3.428-6.671 8.44-0.737zM767.252 169.545c-3.243-0.86-5.159-2.866-7.738-5.015-2.568-2.14 0.716-3.582 5.159-2.149 8.359 2.696 5.823 8.024 2.579 7.164zM749.297 189.723c2.916 2.151 23.953 24.309 20.315 26.889-3.427-4.265-5.44-7.361-8.767-11.258-3.029-3.55-11.968-13.772-13.103-14.855-1.133-1.084-1.36-2.927 1.555-0.776zM761.721 230.08c3.592 1.405 4.932 0.879 7.226 0.552 2.613-0.372 1.915 3.174-1.119 3.822-5.711 1.219-8.145-5.17-6.107-4.374z" fill="#FFEBE2" /><path d="M207.616 679.234c-13.937-0.966-48.192 18.006-60.985 30.701-1.847 1.833 1.496 7.68 0.669 9.172-0.8 1.444-6.247-0.925-6.851 1.092-4.345 14.508-11.884 36.829-7.585 45.15 4.796 9.281 15.994 20.035 15.994 20.035s10.543-47.014 8.375-55.806c13.717-2.339 52.249-20.328 52.249-20.328s-0.723-16.134-1.866-30.016z" fill="#FF4A3B" /><path d="M154.147 803.112l-3.35-4.61c-0.58-0.798-15.149-22.771-19.969-32.101-4.312-8.343 1.457-27.263 6.093-42.464l1.332-4.395c0.338-1.128 1.192-1.94 2.405-2.288 1.163-0.334 2.474-0.193 3.742-0.057l0.515 0.054c-0.096-0.377-0.207-0.772-0.297-1.097-0.724-2.6-1.627-5.835 0.398-7.846 11.051-10.966 35.735-25.149 51.789-29.758 4.401-1.263 8.092-1.802 10.97-1.604l1.965 0.137 0.162 1.963c1.134 13.764 1.865 29.94 1.872 30.1l0.068 1.532-1.388 0.649c-1.272 0.593-31.318 14.588-47.598 19.261h-0.001a61.938 61.938 0 0 1-3.066 0.803c0.982 13.243-4.129 60.722-4.865 66.074l-0.777 5.647z m-11.735-81.479l-1.105 3.641c-3.927 12.877-9.861 32.335-6.406 39.021 3.231 6.254 9.623 14.152 14.075 20.458 2.9-22.079 7.421-48.996 6.031-54.627l-0.59-2.395 2.431-0.414c1.281-0.219 2.877-0.601 4.74-1.136 13.988-4.015 39.335-15.516 45.532-18.365-0.198-4.085-0.786-15.626-1.62-26.293-2.05 0.124-4.539 0.604-7.43 1.434-15.128 4.343-39.215 18.155-49.705 28.486-0.115 0.664 0.392 2.481 0.67 3.478 0.576 2.064 1.074 3.847 0.271 5.296-0.282 0.508-0.847 1.18-1.947 1.495-1.046 0.3-2.213 0.175-3.447 0.043-0.425-0.045-1.045-0.112-1.5-0.122z" fill="#FF0000" /><path d="M804.131 698.936c13.937-0.966 48.192 18.006 60.985 30.701 1.847 1.833-1.496 7.68-0.669 9.172 0.8 1.444 6.247-0.925 6.851 1.092 4.345 14.508 11.884 36.829 7.585 45.15-4.796 9.281-15.994 20.035-15.994 20.035s-10.543-47.014-8.375-55.806c-13.716-2.339-52.249-20.328-52.249-20.328s0.723-16.134 1.866-30.016z" fill="#FF4A3B" /><path d="M856.823 817.168c-0.736-5.352-5.847-52.831-4.865-66.074a63.069 63.069 0 0 1-3.066-0.803h-0.001c-16.281-4.674-46.327-18.668-47.598-19.261l-1.388-0.649 0.068-1.532c0.008-0.161 0.739-16.336 1.872-30.1l0.162-1.963 1.965-0.137c2.878-0.199 6.569 0.34 10.97 1.604 16.054 4.608 40.738 18.792 51.789 29.758 2.025 2.01 1.122 5.245 0.398 7.846-0.091 0.324-0.201 0.72-0.297 1.097l0.515-0.054c1.268-0.136 2.579-0.276 3.742 0.057 1.213 0.348 2.067 1.161 2.405 2.288l1.332 4.395c4.636 15.201 10.405 34.121 6.093 42.464-4.82 9.329-19.389 31.303-19.969 32.101l-3.35 4.61-0.777-5.647z m11.012-75.711c-1.234 0.133-2.401 0.258-3.447-0.043-1.1-0.316-1.665-0.987-1.947-1.495-0.804-1.449-0.306-3.232 0.271-5.296 0.278-0.996 0.784-2.814 0.67-3.478-10.489-10.331-34.576-24.143-49.705-28.486-2.891-0.83-5.38-1.31-7.43-1.434-0.834 10.667-1.423 22.208-1.62 26.293 6.197 2.849 31.544 14.35 45.532 18.365 1.864 0.535 3.459 0.917 4.74 1.136l2.431 0.414-0.59 2.395c-1.389 5.631 3.131 32.548 6.031 54.627 4.452-6.307 10.843-14.204 14.075-20.458 3.456-6.686-2.479-26.144-6.406-39.021l-1.105-3.641c-0.455 0.01-1.075 0.077-1.5 0.122z" fill="#FF0000" /><path d="M803.769 567.664c12.411-6.413 51.381-2.579 68.159 4.002 2.422 0.95 1.672 7.643 3.023 8.686 1.307 1.008 5.368-3.326 6.722-1.714 9.742 11.595 25.514 29.098 24.866 38.441-0.722 10.422-6.739 24.734-6.739 24.734s-28.321-38.979-29.817-47.91c-13.52 3.292-56.026 2.057-56.026 2.057s-5.733-15.099-10.188-28.296z" fill="#FF4A3B" /><path d="M899.024 655.31c-2.798-4.622-26.316-46.182-30.666-58.729-0.948 0.172-1.995 0.332-3.133 0.478h-0.001c-16.799 2.165-49.931 1.232-51.334 1.192l-1.532-0.045-0.545-1.433c-0.057-0.151-5.799-15.29-10.216-28.375l-0.63-1.866 1.749-0.905c2.563-1.324 6.166-2.293 10.707-2.878 16.565-2.135 44.85 1.098 59.343 6.783 2.656 1.043 3.11 4.37 3.476 7.045 0.045 0.334 0.101 0.741 0.162 1.125l0.452-0.253c1.11-0.627 2.258-1.276 3.458-1.431 1.251-0.161 2.358 0.246 3.115 1.147l2.966 3.506c10.284 12.117 23.082 27.198 22.431 36.567-0.726 10.476-5.387 36.425-5.603 37.387l-1.247 5.561-2.952-4.876z m-19.912-73.87c-1.08 0.611-2.102 1.189-3.181 1.328-1.135 0.146-1.92-0.246-2.38-0.601-1.312-1.012-1.562-2.846-1.852-4.969-0.14-1.025-0.396-2.894-0.764-3.458-13.726-5.325-41.315-8.454-56.925-6.442-2.983 0.385-5.458 0.93-7.39 1.63 3.464 10.123 7.5 20.952 8.938 24.78 6.819 0.158 34.648 0.666 49.082-1.195 1.923-0.248 3.539-0.53 4.802-0.837l2.396-0.584 0.408 2.433c0.957 5.72 15.78 28.638 27.198 47.757 1.586-7.555 4.322-17.34 4.809-24.362 0.521-7.508-12.643-23.018-21.353-33.282l-2.458-2.905c-0.415 0.189-0.958 0.496-1.33 0.707z" fill="#FF0000" /><path d="M212.658 557.467c-13.129-4.774-51.289 4.01-67.089 12.682-2.281 1.252-0.681 7.794-1.887 9.001-1.167 1.167-5.749-2.612-6.886-0.84-8.18 12.745-21.585 32.12-19.748 41.304 2.049 10.244 9.845 23.67 9.845 23.67s23.106-42.28 23.448-51.329c13.829 1.537 55.83-5.122 55.83-5.122s3.756-15.708 6.487-29.366z" fill="#FF4A3B" /><path d="M127.085 661.783l-1.948-5.356c-0.337-0.927-8.278-26.067-10.336-36.364-1.843-9.209 8.922-25.802 17.573-39.134l2.493-3.857c0.636-0.991 1.681-1.536 2.943-1.536 1.21 0 2.432 0.497 3.613 0.977 0.146 0.059 0.311 0.127 0.48 0.194 0.011-0.388 0.015-0.799 0.017-1.136 0.021-2.699 0.046-6.058 2.547-7.431 13.648-7.491 41.287-14.313 57.989-14.313 4.579 0 8.275 0.5 10.987 1.486l1.851 0.674-0.386 1.931c-2.708 13.543-6.468 29.292-6.505 29.449l-0.357 1.491-1.514 0.241c-1.386 0.219-34.127 5.38-51.065 5.38h-0.001c-1.147 0-2.207-0.025-3.168-0.074-2.71 13-20.723 57.225-22.907 62.167l-2.306 5.211z m11.201-81.555l-2.067 3.195c-7.327 11.294-18.4 28.359-16.924 35.739 1.38 6.903 5.345 16.257 7.884 23.548 8.88-20.422 20.651-45.047 20.87-50.842l0.094-2.465 2.451 0.273c1.292 0.143 2.931 0.216 4.87 0.216 14.552 0 42.089-4.06 48.832-5.089 0.937-3.981 3.556-15.236 5.697-25.719-2.005-0.447-4.529-0.672-7.538-0.672-15.739 0-42.702 6.63-55.635 13.666-0.293 0.607-0.308 2.493-0.316 3.528-0.016 2.143-0.029 3.994-1.201 5.165-0.411 0.411-1.14 0.9-2.284 0.9-1.088 0-2.175-0.442-3.325-0.91a19.821 19.821 0 0 0-1.408-0.533z" fill="#FF0000" /><path d="M509.452 731.04c47.455 0 113.851 1.995 142.421 19.244 24.731 14.932 41.003 30.226 66.592 76.754 3.654 6.641 10.091 10.302 18.126 10.302h0.002c7.924 0 16.858-3.567 24.514-9.789 26.247-21.326 53.366-53.153 55.511-127.511 3.45-119.597-21.612-226.361-72.477-308.751-10.594-17.161-30.358-25.503-60.424-25.503-2.883 0-5.828 0.073-8.995 0.224-6.662 0.317-8.587 3.561-12.42 10.026-4.044 6.815-9.58 16.15-23.997 26.362-26.59 18.835-65.573 21.432-103.741 21.432-5.86 0-11.599-0.061-17.134-0.12-5.036-0.053-9.905-0.104-14.545-0.107h-0.289c-4.758 0-9.578 0.052-14.434 0.105-4.945 0.053-9.929 0.107-14.925 0.107-30.149 0-64.65-1.655-92.549-21.416-14.417-10.212-19.953-19.546-23.996-26.362-3.834-6.465-5.759-9.709-12.42-10.026a186.56 186.56 0 0 0-8.806-0.219c-29.974 0-49.804 8.346-60.622 25.514-50.176 79.628-75.913 189.274-72.467 308.735 2.146 74.36 29.265 106.187 55.511 127.511 7.656 6.221 16.592 9.789 24.516 9.789 8.035 0 14.472-3.659 18.125-10.302 25.59-46.528 41.863-61.822 66.592-76.754 31.875-19.245 115.012-19.245 142.331-19.245z" fill="#FF4A3B" /><path d="M242.963 710.346s24.074 32.098 36.684 30.952c-2.293 21.781-13.135 88.249-22.163 85.596-9.028-2.653-42.034-41.651-42.416-57.319-0.382-15.667 27.895-59.229 27.895-59.229z" fill="#FF9788" /><path d="M780.229 718.753c-11.082 13.756-23.31 21.399-46.619 20.253 0.764 6.878 16.188 90.924 25.217 88.271 9.028-2.653 42.801-40.887 43.183-56.554 0.383-15.668-12.992-37.45-21.781-51.97z" fill="#FFEB97" /><path d="M734.489 407.977c-14.674-20.072-14.305-22.032-37.308-21.107-14.997 0.603-39.816 35.118-66.24 50.923-33.157 19.833-88.896 16.75-127.736 16.735-38.84-0.015-81.996 3.098-115.152-16.735-26.423-15.805-51.243-50.32-66.24-50.923-23.004-0.925-22.417 1.15-37.308 21.107-49.275 66.035-59.34 131.81-56.148 225.245 2.142 62.718 12.578 88.205 35.43 103.885 15.514 10.644 44.557 11.631 52.722-0.905 23.566-36.183 155.615-49.575 189.893-49.575 37.134 0 180.773 6.704 204.339 42.887 8.164 12.536 37.807 15.941 53.32 5.296 22.852-15.68 30.89-30.521 33.033-93.239 3.191-93.435-12.345-164.846-62.605-233.594z" fill="#FF786B" /><path d="M335.47 371.054c2.685 0 5.537 0.077 8.477 0.228 2.643 0.136 2.982 0.153 6.861 7.216 4.11 7.483 10.321 18.792 25.926 30.729 29.538 22.594 65.305 24.486 96.51 24.486 5.019 0 10.025-0.058 14.992-0.116 4.827-0.056 9.617-0.112 14.347-0.112h0.3c4.617 0.002 9.461 0.057 14.473 0.115 5.558 0.064 11.319 0.13 17.206 0.129 39.301 0 79.549-2.968 107.7-24.502 15.607-11.936 21.818-23.245 25.927-30.729 3.878-7.063 4.218-7.08 6.861-7.216 3.058-0.157 5.894-0.233 8.667-0.233 15.898 0 37.019 2.634 53.802 7.977-16.812-16.704-42.525-18.412-62.895-17.365-15.758 0.81-9.754 18.468-37.519 39.706-34.839 26.65-93.408 22.506-134.219 22.486-40.812-0.02-86.158 4.163-120.997-22.486-27.764-21.238-21.761-38.895-37.518-39.706-20.372-1.048-45.925 0.77-62.823 17.421 16.855-5.377 38.031-8.028 53.922-8.028z" fill="#FF0000" /><path d="M724.821 817.723c-16.85-32.256-5.817-68.646-16.813-90.181-6.143-12.029-33.866-22.211-60.805-26.94-14.33 5.875-98.731 16.563-137.751 16.563-36.018 0-119.466-3.379-146.979-7.965-10.126 3.63-36.97 11.464-50.154 31.525-11.585 17.629-1.528 45.038-17.005 73.177-5.65 10.273-22.382 19.332-34.773 16.049 9.935 15.285 36.315 14.775 43.18 2.293 24.762-45.022 41.972-64.217 67.254-79.482 29.827-18.009 100.018-15.285 136.036-15.285 39.019 0 113.947-0.718 143.774 17.291 25.282 15.264 40.868 32.453 65.63 77.476 5.308 9.651 30.665 14.807 38.117 0.191-17.769 5.732-25.128-5.939-29.711-14.712z" fill="#DC0000" /><path d="M452.101 661.005c-28.544 0-51.766-23.223-51.766-51.766 0-28.544 23.222-51.767 51.766-51.767s51.767 23.223 51.767 51.767c0 28.543-23.223 51.766-51.767 51.766z m0-99.904c-24.751 0-44.888 19.633-44.888 43.766 0 24.132 20.137 43.765 44.888 43.765 24.752 0 44.889-19.633 44.889-43.765 0-24.133-20.137-43.766-44.889-43.766z" fill="#FF5050" /><path d="M288.674 483.697a36.431 34.943 0 1 0 72.862 0 36.431 34.943 0 1 0-72.862 0Z" fill="#FFD56D" /><path d="M289.611 480.885a35.571 31.598 0 1 0 71.142 0 35.571 31.598 0 1 0-71.142 0Z" fill="#FFEB97" /><path d="M381.058 342.641m-22.572 0a22.572 22.572 0 1 0 45.144 0 22.572 22.572 0 1 0-45.144 0Z" fill="#FFFFFF" /><path d="M380.485 320.069c12.13 0 21.999 9.869 21.999 21.999 0 12.13-9.869 21.999-21.999 21.999-12.13 0-21.999-9.869-21.999-21.999 0-12.13 9.869-21.999 21.999-21.999m0-9.171c-17.215 0-31.17 13.955-31.17 31.17 0 10.759 5.451 20.245 13.742 25.846 4.975 3.361-5.607 23.167 0.848 23.167 17.983 9.622 48.148-21.208 47.749-49.014 0-17.213-13.955-31.169-31.169-31.169z" fill="#FF0000" /><path d="M389.062 328.436c-6.694 0-12.121 5.427-12.121 12.122 0 1.635 0.328 3.191 0.915 4.614 1.165-1.397 2.896-2.306 4.858-2.306a6.349 6.349 0 0 1 6.349 6.349 6.304 6.304 0 0 1-1.01 3.412c0.334 0.028 0.669 0.051 1.01 0.051 6.695 0 12.122-5.427 12.122-12.121-0.001-6.695-5.428-12.121-12.123-12.121z" fill="" /><path d="M363.879 368.893c0.925 1.752 0.534 4.883-0.162 8.267 0.377 0.715 0.744 1.294 1.048 1.599 4.299 4.299 21.494-0.86 25.793-8.311-7.896 5.357-21.6 1.835-26.679-1.555z" fill="#DC0000" /><path d="M358.496 341.179c5.875 12.682 23.154 20.36 35.573 18.163-5.374 4.227-14.433 7.432-24.432 2.03-12.18-6.58-11.141-20.193-11.141-20.193z" fill="#ADECDC" /><path d="M634.792 342.638m-22.572 0a22.572 22.572 0 1 0 45.144 0 22.572 22.572 0 1 0-45.144 0Z" fill="#FFFFFF" /><path d="M635.365 320.066c12.13 0 21.999 9.869 21.999 21.999 0 12.13-9.869 21.999-21.999 21.999-12.13 0-21.999-9.869-21.999-21.999 0-12.13 9.869-21.999 21.999-21.999m0-9.171c-17.215 0-31.17 13.955-31.17 31.17-0.399 27.806 29.766 58.635 47.749 49.014 6.455 0-4.127-19.806 0.848-23.167 8.291-5.601 13.742-15.087 13.742-25.846 0.001-17.215-13.954-31.171-31.169-31.171z" fill="#FF0000" /><path d="M626.788 328.433c6.695 0 12.122 5.427 12.122 12.122 0 1.635-0.328 3.191-0.915 4.614-1.165-1.397-2.896-2.306-4.858-2.306a6.349 6.349 0 0 0-6.349 6.349c0 1.259 0.378 2.425 1.01 3.412-0.334 0.028-0.669 0.051-1.01 0.051-6.695 0-12.122-5.427-12.122-12.121 0-6.695 5.427-12.121 12.122-12.121z" fill="" /><path d="M651.971 368.89c-0.925 1.752-0.534 4.883 0.162 8.267-0.377 0.715-0.744 1.294-1.048 1.599-4.299 4.299-21.494-0.86-25.793-8.311 7.896 5.357 21.6 1.835 26.679-1.555z" fill="#DC0000" /><path d="M657.354 341.176c-5.875 12.682-23.154 20.36-35.573 18.163 5.374 4.227 14.433 7.432 24.432 2.03 12.18-6.58 11.141-20.193 11.141-20.193z" fill="#ADECDC" /><path d="M363.332 709.964c3.017-2.212 10.691-4.954 21.463-7.779 30.161-7.91 76.2 6.834 120.687 7.397 45.386 0.575 108.192-15.647 131.53-11.104 4.586 0.893 7.973 1.688 9.856 2.315 11.464 3.821-97.059 18.342-133.934 19.011-36.49 0.661-149.602-9.84-149.602-9.84z" fill="#FF3E37" /><path d="M375.56 705.761c11.464-8.407 77.953-23.31 138.329-22.545 54.306 0.687 113.491 11.846 124.954 15.667 11.464 3.821-94.385 11.846-124.19 12.61-29.042 0.744-139.093-5.732-139.093-5.732z" fill="#BE142F" /><path d="M537.39 689.329c2.371 1.58-11.885 6.878-25.602 6.878-13.718 0-28.486-6.278-25.984-7.643 4.203-2.293 12.076-3.057 25.793-3.057s22.354 1.53 25.793 3.822zM573.691 693.533c0.805 2.615-3.057 4.203-10.699 3.821-13.701-0.685-17.447-4.654-15.667-6.878 2.293-2.866 7.596-2.553 12.992-1.911 8.025 0.955 12.61 2.484 13.374 4.968zM660.816 414.009c-11.449 14.933-28.659 40.983-62.095 43.753-13.888 1.151-21.303-1.624-26.175-3.63-1.025-0.422 29.604-4.008 41.843-8.598 18.341-6.878 33.817-18.342 46.427-31.525z" fill="#FFEBE2" /><path d="M510.068 677.101c-30.467-2.539-101.987 9.843-120.369 17.196-11.464 4.586-8.689 7.071-2.293 4.012 13.183-6.305 84.79-17.196 120.369-17.196 8.598 0.001 9.171-3.439 2.293-4.012zM592.893 685.413c-25.22-6.018-51.918-6.97-58.178-7.451-3.726-0.287-3.153 2.579 1.72 3.152 15.719 1.849 31.239 2.579 54.453 6.305 8.488 1.362 8.719-0.404 2.005-2.006z" fill="#FF9BA2" /><path d="M452.101 557.472c-22.699 0-42.019 14.693-48.984 35.062 2.099 0.688 4.287 0.946 4.924 0.308 0.192-0.192 0.753-0.936 1.599-2.054 4.641-13.266 15.61-23.69 29.41-27.788 1.171-0.43 2.325-0.738 3.447-0.866a45.947 45.947 0 0 1 9.604-1.034c21.026 0 38.672 14.187 43.523 33.245 2.313 1.339 4.719 1.829 6.47 1.475-5.927-22.057-26.089-38.348-49.993-38.348z" fill="#FF9788" /><path d="M585.94 655.846c-25.541 0-46.321-20.78-46.321-46.321 0-25.541 20.779-46.322 46.321-46.322s46.322 20.78 46.322 46.322c0 25.541-20.781 46.321-46.322 46.321z m0-89.395c-22.147 0-40.166 17.568-40.166 39.162 0 21.593 18.019 39.161 40.166 39.161 22.148 0 40.167-17.568 40.167-39.161 0-21.594-18.019-39.162-40.167-39.162z" fill="#FF5055" /><path d="M585.94 563.204c-20.312 0-37.599 13.147-43.832 31.374 1.878 0.616 3.836 0.846 4.406 0.276 0.172-0.172 0.674-0.838 1.431-1.838 4.152-11.87 13.968-21.198 26.317-24.865 1.048-0.385 2.08-0.66 3.084-0.775a41.078 41.078 0 0 1 8.593-0.925c18.815 0 34.604 12.695 38.945 29.748 2.07 1.198 4.222 1.637 5.79 1.32-5.303-19.738-23.345-34.315-44.734-34.315z" fill="#FF9C9D" /><path d="M404.921 606.02a47.181 44.919 0 1 0 94.362 0 47.181 44.919 0 1 0-94.362 0Z" fill="#FF786B" /><path d="M524.753 533.471c-17.245 0-31.275-14.03-31.275-31.275 0-17.245 14.03-31.275 31.275-31.275 17.245 0 31.275 14.03 31.275 31.275 0 17.245-14.03 31.275-31.275 31.275z m0-60.357c-14.953 0-27.119 11.861-27.119 26.441 0 14.579 12.166 26.441 27.119 26.441 14.954 0 27.12-11.861 27.12-26.441-0.001-14.58-12.166-26.441-27.12-26.441z" fill="#FF5050" /><path d="M524.753 470.921c-13.714 0-25.386 8.877-29.594 21.183 1.268 0.416 2.59 0.571 2.975 0.186 0.116-0.116 0.455-0.566 0.966-1.241 2.804-8.015 9.431-14.313 17.768-16.788 0.707-0.26 1.405-0.446 2.083-0.523 1.872-0.4 3.809-0.624 5.802-0.624 12.703 0 23.364 8.571 26.295 20.085 1.398 0.809 2.851 1.105 3.909 0.891-3.581-13.327-15.763-23.169-30.204-23.169z" fill="#FF9788" /><path d="M496.248 500.252a28.505 27.138 0 1 0 57.01 0 28.505 27.138 0 1 0-57.01 0Z" fill="#FF786B" /><path d="M705.02 559.265c-9.818 0-17.805-7.988-17.805-17.805 0-9.818 7.987-17.805 17.805-17.805s17.805 7.988 17.805 17.805-7.988 17.805-17.805 17.805z m0-34.363c-8.513 0-15.439 6.753-15.439 15.053s6.926 15.053 15.439 15.053 15.44-6.753 15.44-15.053c-0.001-8.3-6.927-15.053-15.44-15.053z" fill="#FF5074" /><path d="M705.02 523.654c-7.807 0-14.452 5.054-16.848 12.06 0.722 0.237 1.474 0.325 1.694 0.106 0.066-0.066 0.259-0.322 0.55-0.706 1.596-4.563 5.369-8.148 10.116-9.558 0.403-0.148 0.8-0.254 1.186-0.298a15.758 15.758 0 0 1 3.303-0.356c7.232 0 13.301 4.88 14.97 11.435 0.796 0.461 1.623 0.629 2.225 0.507-2.04-7.587-8.975-13.19-17.196-13.19z" fill="#FF83A0" /><path d="M688.792 540.352a16.228 15.45 0 1 0 32.456 0 16.228 15.45 0 1 0-32.456 0Z" fill="#FFB4C2" /><path d="M656.872 521.148c-9.818 0-17.805-7.988-17.805-17.805 0-9.818 7.987-17.805 17.805-17.805s17.805 7.988 17.805 17.805-7.987 17.805-17.805 17.805z m0-34.362c-8.513 0-15.439 6.753-15.439 15.053s6.926 15.053 15.439 15.053 15.44-6.753 15.44-15.053c0-8.301-6.927-15.053-15.44-15.053z" fill="#FF9E6E" /><path d="M656.872 485.538c-7.807 0-14.452 5.054-16.848 12.06 0.722 0.237 1.474 0.325 1.694 0.106 0.066-0.066 0.259-0.322 0.55-0.706 1.596-4.563 5.369-8.148 10.116-9.558 0.403-0.148 0.8-0.254 1.186-0.298a15.758 15.758 0 0 1 3.303-0.355c7.232 0 13.301 4.88 14.97 11.435 0.796 0.461 1.623 0.629 2.225 0.507-2.039-7.588-8.974-13.191-17.196-13.191z" fill="#FFBA88" /><path d="M640.644 502.236a16.228 15.45 0 1 0 32.456 0 16.228 15.45 0 1 0-32.456 0Z" fill="#FFEB97" /><path d="M739.411 512.837c-9.818 0-17.805-7.988-17.805-17.805 0-9.818 7.987-17.805 17.805-17.805s17.805 7.988 17.805 17.805-7.987 17.805-17.805 17.805z m0-34.363c-8.513 0-15.439 6.753-15.439 15.053s6.926 15.053 15.439 15.053 15.44-6.753 15.44-15.053c-0.001-8.3-6.927-15.053-15.44-15.053z" fill="#FFB3AE" /><path d="M739.411 477.226c-7.807 0-14.452 5.054-16.848 12.06 0.722 0.237 1.474 0.325 1.694 0.106 0.066-0.066 0.259-0.322 0.55-0.706 1.596-4.563 5.369-8.148 10.116-9.558 0.403-0.148 0.8-0.254 1.186-0.298a15.758 15.758 0 0 1 3.303-0.355c7.232 0 13.301 4.88 14.97 11.435 0.796 0.461 1.623 0.629 2.225 0.507-2.04-7.588-8.974-13.191-17.196-13.191z" fill="#FFDBCA" /><path d="M723.183 493.924a16.228 15.45 0 1 0 32.456 0 16.228 15.45 0 1 0-32.456 0Z" fill="#FFF0DF" /><path d="M695.562 477.013c-9.818 0-17.805-7.988-17.805-17.805 0-9.818 7.987-17.805 17.805-17.805s17.805 7.988 17.805 17.805-7.987 17.805-17.805 17.805z m0-34.363c-8.513 0-15.439 6.753-15.439 15.053s6.926 15.053 15.439 15.053 15.44-6.753 15.44-15.053-6.926-15.053-15.44-15.053z" fill="#ACD5CE" /><path d="M695.562 441.402c-7.807 0-14.452 5.054-16.848 12.06 0.722 0.237 1.474 0.325 1.694 0.106 0.066-0.066 0.259-0.322 0.55-0.706 1.596-4.563 5.369-8.148 10.116-9.558 0.403-0.148 0.8-0.254 1.186-0.298a15.758 15.758 0 0 1 3.303-0.355c7.232 0 13.301 4.88 14.97 11.435 0.796 0.461 1.623 0.629 2.225 0.507-2.039-7.588-8.974-13.191-17.196-13.191z" fill="#DAF1EB" /><path d="M679.334 458.1a16.228 15.45 0 1 0 32.456 0 16.228 15.45 0 1 0-32.456 0Z" fill="#F4F4EE" /><path d="M492.979 593.274c-1.687-0.157-4.784 0.081-14.795-0.046-3.494-0.044-7.13-0.228-10.244-1.963s-3.422-5.796-3.792-11.151c-0.246-3.555 0.041-12.79-0.123-14.4-0.537-5.254-23.39-5.019-23.848 0-0.146 1.599 0.057 4.013-0.044 13.882-0.065 6.318-1.172 10.457-5.335 12.362-2.099 0.799-4.891 1.062-8.569 1.108-10.323 0.128-13.108-0.111-14.795 0.046-5.506 0.513-5.259 22.323 0 22.76 1.675 0.139 4.205-0.1 14.545 0.042 6.969 0.096 10.861 1.874 12.246 3.92 1.197 1.766 1.634 3.006 1.875 5.474 0.247 2.53 0.177 16.558 0.323 18.157 0.457 5.019 23.311 5.254 23.848 0 0.165-1.61-0.086-4.268 0.048-14.12 0.048-3.51 0.324-6.174 1.161-8.178 1.996-3.973 6.333-5.029 12.953-5.091 10.341-0.097 12.87 0.097 14.545-0.042 5.26-0.437 5.506-22.248 0.001-22.76z" fill="#FFA18B" /><path d="M492.789 612.883c-1.675 0.139-4.004-0.097-14.345 0-6.62 0.062-10.858 1.429-12.854 5.403-0.931 1.77-0.948 5.716-1.118 7.452 0.179-1.118 0.649-3.711 1.008-4.57 1.997-3.973 6.333-5.029 12.953-5.091 10.341-0.097 12.87 0.097 14.545-0.042 2.139-0.178 3.449-3.892 3.879-8.271-0.556 3.718-2.17 4.962-4.068 5.119zM442.05 641.182c-0.146-1.599-0.613-14.952-0.86-17.482-0.241-2.467-1.065-4.705-1.624-5.636-1.271-2.119-5.57-5.643-12.539-5.739-10.341-0.142-13.601 0.139-15.276 0-3.181-0.264-4.659-6.249-4.008-12.71-1.031 6.628 0.266 15.974 3.691 16.258 1.675 0.139 4.205-0.1 14.545 0.042 6.969 0.096 10.861 1.874 12.247 3.92 1.197 1.766 1.634 3.006 1.875 5.474 0.247 2.53 0.177 16.559 0.323 18.157 0.457 5.019 23.311 5.254 23.848 0 0.028-0.272 0.007-1.904 0.015-2.265-1.919 4.722-21.795 4.831-22.237-0.019z" fill="#FF5050" /><path d="M899.544 639.824c-10.556-13.521-30.076-47.27-26.554-55.815-4.964 6.119-45.201 6.392-58.489-1.283-8.041-56.556-23.378-108.71-45.659-154.889 1.333-1.02 11.34-8.728 17.039-14.783-0.764-3.057 4.585-28.277 12.228-41.269 2.821-4.796 24.675 0.95 23.31-4.968-0.929-4.023-12.971-13.757-12.61-15.667 0.293-1.552 1.346-34.747 6.018-49.485 1.078-3.401 18.055-10.031 23.787-14.616-67.063-6.018-114.255-57.796-115.019-60.853a1.611 1.611 0 0 1 0.024-0.915c-3.595-1.822-11.587-4.464-15.886-5.833a4.321 4.321 0 0 0-1.042 2.144c-1.402 8.302 21.871 28.115 29.036 33.989 12.252 10.044 37.963 29.432 72.508 46.421 2.688 1.321 0.356 17.329-10.891 42.816-0.807 1.828 0.308 4.096 2.702 8.645 0.636 1.209 1.517 2.884 1.957 3.94-1.242 0.298-3.689 0.329-5.123 0.347-3.566 0.045-6.142 0.077-7.184 2.013-5.783 10.739-25.771 43.187-30.044 50.107-3.825-7.073-7.806-14.008-11.977-20.763-11.412-18.488-32.334-27.475-63.958-27.475-2.95 0-5.958 0.074-9.194 0.228-8.896 0.424-11.941 5.558-15.797 12.057-3.851 6.495-9.127 15.39-22.824 25.091-29.922 21.194-79.203 20.955-118.428 20.548-5.052-0.054-9.935-0.106-14.587-0.108h-0.291c-4.773 0-9.607 0.052-14.479 0.104-4.93 0.053-9.899 0.107-14.881 0.107-29.509 0-63.244-1.595-90.146-20.652-13.696-9.701-18.971-18.596-22.824-25.091-3.855-6.499-6.9-11.633-15.798-12.057a190.806 190.806 0 0 0-9.003-0.223c-31.518 0-52.498 8.98-64.139 27.454-5.034 7.988-9.813 16.287-14.354 24.852-3.237-5.238-24.448-39.622-30.435-50.74-1.042-1.936-3.618-1.968-7.184-2.013-1.434-0.018-3.881-0.049-5.123-0.347 0.44-1.056 1.321-2.73 1.957-3.939 2.395-4.549 3.51-6.817 2.703-8.645-11.247-25.488-13.578-41.496-10.89-42.816 34.544-16.99 60.256-36.377 72.508-46.421 7.165-5.874 30.437-25.687 29.035-33.989a4.314 4.314 0 0 0-1.042-2.144c-4.299 1.368-12.292 4.011-15.886 5.833 0.086 0.266 0.112 0.562 0.024 0.915-0.764 3.057-47.957 54.835-115.019 60.853 5.732 4.585 22.709 11.215 23.787 14.616 4.673 14.738 5.726 47.933 6.018 49.485 0.361 1.91-11.681 11.644-12.61 15.667-1.366 5.918 20.489 0.172 23.31 4.968 7.642 12.992 12.992 38.212 12.228 41.269 5.568 5.916 15.946 13.826 17.76 15.195-19.638 41.731-33.78 89.24-41.954 140.482-9.801 10.209-54.08 16.055-60.065 10.356 4.585 8.025-10.461 43.992-19.202 58.752-0.094-0.27 0.578 19.631 0.578 19.631l1.917-4.338c2.184-4.941 20.197-49.167 22.907-62.167 8.908 2.146 44.159-1.775 51.297-4.542-4.621 35.364-6.466 72.342-5.371 110.302 0.025 0.863 0.07 1.692 0.102 2.544-13.657 10.997-41.782 22.109-47.773 18.979 6.622 6.448 2.084 45.171-2.246 61.769-0.165-0.233 5.972 18.71 5.972 18.71l0.646-4.699c0.736-5.352 5.847-52.831 4.865-66.074 6.901-0.298 27.246-8.043 39.457-13.821 5.643 63.756 31.203 93.04 56.022 113.207 8.383 6.812 18.274 10.718 27.136 10.718 9.619 0 17.35-4.424 21.768-12.457 25.132-45.694 41.016-60.655 65.099-75.196 30.884-18.648 113.15-18.648 140.183-18.648 29.918 0 109.391 0 140.274 18.648 24.082 14.541 39.966 29.502 65.099 75.196 4.417 8.033 12.146 12.455 21.766 12.457h0.002c8.991 0 18.627-3.807 27.136-10.718 21.812-17.725 44.206-42.485 53.142-91.508 12.223 5.419 28.957 11.559 35.087 11.824-0.982 13.243 4.129 60.722 4.865 66.074l0.646 4.699s6.137-18.943 5.972-18.71c-4.329-16.598-8.867-55.321-2.246-61.769-5.279 2.758-27.744-5.544-42.353-15.08 0.998-8.102 1.661-16.792 1.931-26.146 1.021-35.398-0.448-69.683-4.329-102.562l0.246 0.985c6.986 1.893 43.03 1.293 51.667-2.003 4.35 12.547 27.868 54.107 30.666 58.728l2.456 4.057c0.003-0.001-1.875-19.825-1.934-19.545z m-82.926 60.217c-0.06 2.076-0.142 4.113-0.24 6.123l-0.004 0.09c-0.645 13.112-2.095 24.841-4.193 35.384l-0.115 0.577c-0.271 1.34-0.551 2.663-0.842 3.965l-0.079 0.343c-0.291 1.29-0.592 2.563-0.903 3.816l-0.052 0.211c-0.317 1.271-0.645 2.52-0.982 3.754l-0.143 0.52c-0.342 1.237-0.691 2.46-1.052 3.66l-0.009 0.029c-0.361 1.201-0.734 2.38-1.114 3.546l-0.124 0.381a156.86 156.86 0 0 1-1.305 3.799 147.575 147.575 0 0 1-2.51 6.532l-0.175 0.426a142.475 142.475 0 0 1-1.315 3.064l-0.121 0.269c-0.445 0.997-0.896 1.979-1.355 2.946l-0.068 0.144a133.439 133.439 0 0 1-1.624 3.288c-0.482 0.945-0.97 1.879-1.466 2.796l-0.033 0.059c-0.491 0.907-0.99 1.797-1.493 2.677l-0.175 0.307c-0.5 0.868-1.007 1.723-1.519 2.565l-0.216 0.353a125.132 125.132 0 0 1-3.194 4.952l-0.241 0.355c-0.533 0.78-1.071 1.55-1.614 2.306l-0.187 0.258c-0.532 0.738-1.068 1.466-1.609 2.183l-0.112 0.15a126.402 126.402 0 0 1-1.957 2.518c-0.563 0.707-1.129 1.405-1.699 2.091l-0.104 0.124c-0.552 0.662-1.107 1.312-1.665 1.955l-0.241 0.279c-0.567 0.65-1.138 1.29-1.711 1.922l-0.297 0.325a139.068 139.068 0 0 1-5.595 5.783l-0.269 0.261c-0.556 0.541-1.113 1.075-1.672 1.601l-0.179 0.17c-0.587 0.552-1.175 1.095-1.764 1.632l-0.362 0.33c-0.586 0.531-1.173 1.058-1.76 1.576l-0.19 0.166c-0.555 0.488-1.111 0.97-1.667 1.447l-0.303 0.261c-0.584 0.499-1.167 0.991-1.751 1.478l-0.349 0.29c-0.598 0.497-1.196 0.99-1.794 1.475-7.656 6.221-16.59 9.789-24.514 9.789h-0.002c-8.035 0-14.472-3.661-18.126-10.302-25.589-46.528-41.861-61.822-66.592-76.754-28.57-17.25-94.966-19.244-142.421-19.244-27.319 0-110.456 0-142.332 19.244-24.729 14.932-41.002 30.226-66.592 76.754-3.653 6.643-10.09 10.302-18.125 10.302-7.924 0-16.86-3.567-24.516-9.789a208.307 208.307 0 0 1-4.424-3.697l-0.226-0.194a172.782 172.782 0 0 1-2.085-1.83l-0.202-0.18a162.892 162.892 0 0 1-2.12-1.929l-0.133-0.124c-23.05-21.386-44.427-53.881-46.322-119.557-1.62-56.182 3.217-110.19 14.013-159.929l0.018-0.081a562.663 562.663 0 0 1 2.204-9.742l0.058-0.236a552.253 552.253 0 0 1 2.32-9.469c0.039-0.153 0.081-0.304 0.12-0.457 0.782-3.06 1.584-6.105 2.412-9.128 0.065-0.237 0.135-0.469 0.2-0.706a529.83 529.83 0 0 1 2.488-8.759c0.089-0.301 0.183-0.597 0.273-0.898a511.98 511.98 0 0 1 2.568-8.439c0.121-0.385 0.251-0.763 0.373-1.148a499.526 499.526 0 0 1 2.621-8.058c0.161-0.48 0.332-0.951 0.495-1.43a490.48 490.48 0 0 1 2.651-7.645c0.203-0.567 0.417-1.123 0.622-1.688a477.476 477.476 0 0 1 2.675-7.25c0.25-0.656 0.513-1.299 0.765-1.953a452.345 452.345 0 0 1 2.683-6.843c0.307-0.761 0.63-1.507 0.941-2.265a446.868 446.868 0 0 1 2.656-6.386c0.373-0.873 0.764-1.728 1.142-2.595 0.861-1.977 1.719-3.957 2.604-5.91 0.438-0.965 0.894-1.91 1.337-2.87 0.847-1.833 1.689-3.673 2.558-5.484 0.522-1.09 1.066-2.157 1.596-3.238 0.812-1.656 1.616-3.322 2.446-4.959 0.632-1.247 1.287-2.468 1.929-3.703 0.752-1.447 1.494-2.906 2.26-4.337 0.741-1.383 1.506-2.738 2.259-4.106 0.693-1.257 1.373-2.528 2.076-3.772 0.937-1.657 1.9-3.283 2.857-4.917 0.543-0.928 1.073-1.872 1.623-2.793a366.285 366.285 0 0 1 4.626-7.542c10.818-17.168 30.648-25.514 60.622-25.514 2.794 0 5.757 0.074 8.806 0.219 6.662 0.317 8.586 3.561 12.42 10.026 4.042 6.816 9.579 16.15 23.996 26.361 27.899 19.762 62.4 21.417 92.549 21.417 4.997 0 9.98-0.054 14.925-0.107 4.857-0.053 9.676-0.105 14.434-0.105h0.289c4.64 0.002 9.509 0.054 14.545 0.107 5.535 0.059 11.274 0.12 17.134 0.12 38.168 0 77.152-2.596 103.742-21.432 14.417-10.212 19.952-19.547 23.997-26.361 3.833-6.465 5.759-9.709 12.42-10.026 3.168-0.151 6.112-0.224 8.995-0.224 30.066 0 49.829 8.342 60.424 25.503 50.866 82.39 75.928 189.154 72.478 308.751z" fill="#D00000" /></svg>