<svg class="svg-icon" style="width: 1em; height: 1em;vertical-align: middle;fill: currentColor;overflow: hidden;" viewBox="0 0 1024 1024" version="1.1" xmlns="http://www.w3.org/2000/svg"><path d="M511.669 512.504m-450 0a450 450 0 1 0 900 0 450 450 0 1 0-900 0Z" fill="#CB6485" /><path d="M446.351 990.567l10.278 0.263c-1.182-8.654-5.556-38.826-10.906-52.886-5.786-15.207 1.015-50.642 3.236-61.141l0.712-3.361 2.615 2.229a92.34 92.34 0 0 0 18.529 12.267l1.379 0.691-0.285 1.517c-2.463 13.055-3.404 22.312-2.797 27.514 1.491 12.772 7.466 22.332 9.2 24.881l10.103 1.357c-0.863-4.531-3.069-14.123-7.593-23.246-2.425-4.89-2.641-13.418-0.657-26.073l0.376-2.399 2.3 0.78c10.14 3.445 20.811 5.191 31.716 5.191 13.992 0 27.429-2.83 39.937-8.413l2.451-1.094 0.401 2.655c2.034 13.432 1.834 22.34-0.611 27.232-4.567 9.131-5.726 18.416-6.02 22.6l8.55-0.982c1.75-2.545 7.694-11.973 9.181-24.602 0.623-5.309-0.451-15.684-3.106-30.005l-0.252-1.363 1.172-0.738a90.654 90.654 0 0 0 14.548-11.395l2.966-2.854 0.481 4.088c2.247 19.081 5.311 52.935 0.603 65.312-5.191 13.646-8.664 38.796-9.708 47.073l9.772-1.712c1.575-5.457 7.948-28.316 9.522-45.904 1.409-15.734-1.76-59.28-3.189-77.272l-0.058-0.732 0.423-0.603c9.588-13.666 14.656-29.504 14.656-45.8 0-33.202-21.26-63.464-54.165-77.096l-1.321-0.547 0.062-1.429 18.412-428.123 0.81-0.58c43.251-30.983 48.842-37.335 49.526-38.544 3.413-6.039 25.681-88.394 28.931-100.632-3.295-8.043-6.858-15.761-10.596-22.95l-3.629-6.982 6.568 4.332c11.54 7.615 28.919 16.727 44.916 16.092 21.668-0.867 45.501-17.565 47.481-33.185-1.73-4.165-36.192-10.577-75.876-10.577-15.255 0-27.272 1.04-34.753 3.007l-1.331 0.35-0.824-1.103c-9.323-12.462-19.843-22.898-31.266-31.018l-0.948-0.674 0.094-1.158c1.134-13.911 4.708-25.241 10.93-34.638l0.611-0.924 1.108 0.008c7.359 0 10.263-4.763 14.187-12.609 1.996-3.991 1.938-9.688-0.136-13.855-1.233-2.473-3.784-5.621-8.942-6.577a14.987 14.987 0 0 0-2.736-0.249c-8.039 0-15.301 6.113-17.418 11.778-2.752 7.367-0.389 13.684 2.377 15.411l0.727 0.454 0.186 0.836c1.559 7.026-7.309 18.342-16.7 30.324l-1 1.275-1.553-0.575c-17.223-7.997-36.765-12.051-58.083-12.051-24.463 0-46.728 5.06-66.178 15.038l-1.506 0.772-3.494-4.474c-9.383-11.975-18.247-23.286-16.685-30.31l0.186-0.836 0.726-0.454c2.765-1.727 5.128-8.045 2.375-15.411-2.118-5.664-9.38-11.778-17.419-11.778-0.922 0-1.842 0.084-2.734 0.249-5.159 0.955-7.71 4.104-8.942 6.578-2.076 4.166-2.131 9.864-0.136 13.854 3.922 7.846 6.827 12.609 14.075 12.609h1.098l0.732 0.916c7.025 10.612 10.705 23.821 11.251 40.38l0.034 1.022-0.798 0.64c-9.081 7.278-17.291 15.939-24.4 25.745l-0.847 1.169-1.385-0.407c-7.251-2.137-19.985-3.313-35.857-3.313-39.594 0-73.986 6.382-75.862 10.602 2.002 15.613 25.818 32.291 47.475 33.158 17.417 0.652 36.252-9.905 48.812-18.746l6.264-4.409-3.235 6.944c-3.84 8.243-7.107 17.122-9.714 26.397 1.754 8.271 23.395 93.977 28.843 99.399 4.169 4.15 35.833 25.104 64.075 43.327l0.879 0.567 0.054 1.044 21.882 420.131-1.619 0.417c-39.471 10.141-67.039 43.609-67.039 81.387 0 18.101 6.133 35.367 17.739 49.936l-1.353 1.283 1.755 0.222c-0.063 0.499-6.262 50.119-4.472 70.124 1.585 17.725 8.243 48.181 9.846 55.362z" fill="#FFB279" /><path d="M473.511 389.944c13.235 5.449 28.153 18.905 44.453 18.905 16.947 0 35.004-25.317 48.541-31.168l2.026-54.08c-13.935-6.648-31.467-10.3-49.544-10.3-17.727 0-34.983 3.519-48.775 9.928l3.299 66.715z" fill="#FA755D" /><path d="M493.946 479.963c-14.417 0-15.226 14.795-15.226 30.741 0 15.945 8.173 25.796 16.823 14.263 9.875-13.166 23.04-15.872 23.04-31.818 0.001-15.945-10.22-13.186-24.637-13.186zM532.847 594.088c-12.312 3.847-16.623 21.186-4.389 28.526 5.486 3.291 9.874 13.166 18.652 18.652 10.938 6.836 8.777-13.162 8.777-27.429 0-14.267-5.486-25.234-23.04-19.749zM449.317 838.179c-5.127-0.974-11.27-7.298-19.535-9.025-10.301-2.152-3.012 12.55 1.008 23.473 4.02 10.923 11.31 17.775 23.204 8.629 8.343-6.415 6.758-20.904-4.677-23.077zM605.534 792.584c-3.566-13.44-9.326-23.955-18.103-33.281-12.312 3.847-24.303 26.306-12.069 33.646 5.486 3.291 9.874 13.166 18.652 18.652 10.938 6.837 15.179-5.227 11.52-19.017zM488.412 712.856c0.274 4.389 0.549 10.972 0.952 17.42-16.457 4.023 7.143 23.625 17.618 23.625s2.458-12.91 2.458-24.497c0.001-11.585-10.553-16.548-21.028-16.548zM546.013 404.5c-12.899 0-23.235 0.029-23.235 14.296s34.081 22.746 42.71 32.334c0.823-9.052 1.371-22.218 2.194-36.755 0.806-14.245-8.77-9.875-21.669-9.875z" fill="#FF772C" /><path d="M462.41 854.859a53.581 39.842 0 1 0 107.162 0 53.581 39.842 0 1 0-107.162 0Z" fill="#FFFBD6" /><path d="M737.378 123.876c-0.483-11.094-58.793-14.54-79.98-14.54-10.399 0-24.6 0.498-34.453 2.808-9.113-11.98-19.332-22.109-30.4-30.132 1.134-12.243 4.275-22.299 9.586-30.675 9.554-0.496 13.359-8.104 16.73-14.844 2.573-5.145 2.519-12.18-0.134-17.505-1.647-3.306-5.04-7.512-11.856-8.774a19.125 19.125 0 0 0-3.481-0.317c-9.922 0-18.594 7.339-21.246 14.434-3.167 8.479-0.908 16.395 3.217 19.724 0.253 5.204-7.648 15.523-15.109 25.052-17.402-7.802-37.014-11.757-58.326-11.757-24.489 0-46.864 4.954-66.535 14.727l-1.426-1.823c-7.646-9.759-16.27-20.764-16.004-26.198 4.127-3.328 6.386-11.245 3.216-19.724-2.652-7.095-11.325-14.434-21.247-14.434a19.2 19.2 0 0 0-3.479 0.317c-6.817 1.262-10.21 5.469-11.857 8.775-2.652 5.325-2.704 12.359-0.133 17.504 3.354 6.708 7.138 14.278 16.725 14.836 6.086 9.6 9.351 21.515 9.965 36.361-8.693 7.082-16.594 15.396-23.511 24.742-9.817-2.546-24.654-3.095-35.62-3.095-21.184 0-79.489 3.445-79.97 14.538l-0.007 0.158 0.018 0.157c1.972 17.754 27.436 36.12 51.408 37.079 15.934 0.631 32.74-7.419 45.447-15.537-2.78 6.699-5.201 13.739-7.225 21.012l-0.125 0.449 0.082 0.458c0.157 0.876 22.865 94.846 30.07 102.017 5.292 5.268 45.726 31.586 63.864 43.298l21.655 415.762c-40.411 11.097-68.49 45.792-68.49 84.916 0 18.742 6.244 36.623 18.068 51.772-0.846 6.874-6.103 50.928-4.383 70.156 1.823 20.364 10.199 57.085 10.284 57.454l0.354 1.545 18.229 0.467-0.299-2.361c-0.203-1.597-5.031-39.301-11.456-56.185-4.934-12.967 0.434-43.868 2.739-55.532a96.518 96.518 0 0 0 15.329 9.934c-2.328 12.68-3.189 21.839-2.56 27.242 1.875 16.065 10.127 27.086 10.478 27.548l0.514 0.677 17.236 2.317-0.357-2.657c-0.077-0.569-1.952-14.105-8.438-27.184-1.303-2.627-2.418-8.435-0.634-21.246 9.867 3.088 20.184 4.65 30.707 4.65 3.089 0 6.15-0.14 9.184-0.404 0.781 1.315 1.066 3.357 0.054 6.541-1.558 4.899-5.393 6.63-10.467 7.127-0.137 0.411-0.823 1.097-0.137 1.509 3.291 0.137 9.953-0.139 13.617-7.466 1.92-3.84 1.509-6.465 0.687-8.103a100.456 100.456 0 0 0 26.188-6.904c1.824 13.57 0.709 19.54-0.603 22.165-6.557 13.111-6.555 26.192-6.551 26.743l0.014 2.279 14.951-1.719 0.529-0.687c0.349-0.455 8.608-11.349 10.484-27.296 0.659-5.615-0.315-15.662-2.898-29.873a94.442 94.442 0 0 0 11.045-8.403c3.311 29.771 3.463 51.303 0.385 59.39-6.429 16.895-10.125 49.413-10.281 50.788l-0.303 2.712 17.668-3.096 0.363-1.209c0.082-0.271 8.201-27.494 10.031-47.922 1.417-15.832-1.667-58.712-3.128-77.23 9.8-14.219 14.975-30.639 14.975-47.541 0-34.413-21.682-65.789-55.367-80.313l18.267-424.718c30.901-22.157 47.686-35.37 49.894-39.275 4.104-7.257 29.276-101.369 29.505-102.279l0.166-0.651-0.253-0.623a294.537 294.537 0 0 0-7.732-17.394c11.606 6.841 26.707 13.447 41.112 12.88 23.973-0.959 49.437-19.325 51.411-37.079l0.016-0.157-0.006-0.158z m-51.585 33.309c-15.997 0.635-33.376-8.477-44.916-16.092l-6.568-4.332 3.629 6.982c3.738 7.189 7.301 14.907 10.596 22.95-3.249 12.238-25.518 94.593-28.931 100.632-0.685 1.209-6.275 7.56-49.526 38.544l-0.81 0.58-18.412 428.123-0.062 1.429 1.321 0.547c32.905 13.632 54.165 43.894 54.165 77.096 0 16.297-5.068 32.134-14.656 45.8l-0.423 0.603 0.058 0.733c1.429 17.991 4.599 61.538 3.189 77.272-1.575 17.588-7.948 40.447-9.522 45.904l-9.772 1.713c1.044-8.277 4.517-33.427 9.708-47.073 4.708-12.377 1.645-46.231-0.603-65.312l-0.481-4.088-2.966 2.854a90.767 90.767 0 0 1-14.548 11.395l-1.172 0.738 0.252 1.363c2.655 14.321 3.728 24.695 3.106 30.004-1.487 12.628-7.431 22.057-9.181 24.602l-8.55 0.982c0.293-4.183 1.453-13.468 6.02-22.6 2.445-4.892 2.645-13.8 0.611-27.232l-0.401-2.655-2.451 1.094c-12.508 5.583-25.945 8.413-39.937 8.413-10.905 0-21.576-1.746-31.716-5.191l-2.3-0.78-0.376 2.399c-1.984 12.654-1.768 21.183 0.657 26.073 4.525 9.123 6.73 18.716 7.593 23.246l-10.103-1.357c-1.734-2.549-7.709-12.109-9.2-24.881-0.607-5.201 0.334-14.458 2.797-27.514l0.285-1.517-1.379-0.691a92.34 92.34 0 0 1-18.529-12.267l-2.615-2.229-0.711 3.361c-2.221 10.499-9.023 45.934-3.236 61.141 5.35 14.059 9.724 44.231 10.906 52.886l-10.278-0.263c-1.604-7.181-8.261-37.637-9.848-55.359-1.79-20.005 4.409-69.625 4.472-70.124l-1.755-0.221 1.353-1.283c-11.605-14.568-17.739-31.835-17.739-49.936 0-37.779 27.568-71.246 67.039-81.387l1.619-0.417-21.886-420.134-0.054-1.044-0.879-0.567c-28.242-18.224-59.905-39.177-64.075-43.327-5.448-5.422-27.088-91.128-28.843-99.399 2.607-9.275 5.874-18.154 9.714-26.397l3.235-6.944-6.264 4.409c-12.56 8.841-31.395 19.397-48.812 18.746-21.657-0.867-45.473-17.545-47.475-33.158 1.876-4.22 36.269-10.602 75.862-10.602 15.872 0 28.606 1.177 35.857 3.313l1.385 0.407 0.847-1.169c7.109-9.806 15.319-18.467 24.4-25.745l0.798-0.64-0.034-1.022c-0.546-16.559-4.226-29.768-11.251-40.38l-0.732-0.916h-1.098c-7.248 0-10.153-4.763-14.075-12.609-1.995-3.99-1.94-9.687 0.136-13.854 1.231-2.474 3.782-5.622 8.942-6.578a14.982 14.982 0 0 1 2.734-0.249c8.04 0 15.302 6.113 17.419 11.778 2.753 7.367 0.39 13.684-2.375 15.411l-0.726 0.454-0.186 0.836c-1.562 7.024 7.302 18.334 16.685 30.31l3.494 4.474 1.506-0.772c19.45-9.979 41.716-15.038 66.178-15.038 21.318 0 40.86 4.055 58.083 12.051l1.553 0.575 1-1.275c9.391-11.981 18.259-23.298 16.7-30.324l-0.186-0.836-0.727-0.454c-2.766-1.727-5.13-8.044-2.377-15.411 2.118-5.664 9.379-11.778 17.418-11.778 0.924 0 1.844 0.084 2.736 0.249 5.157 0.955 7.708 4.104 8.942 6.577 2.074 4.166 2.132 9.864 0.136 13.855-3.924 7.846-6.828 12.609-14.187 12.609l-1.108-0.008-0.611 0.924c-6.221 9.397-9.796 20.727-10.93 34.638l-0.094 1.158 0.948 0.674c11.423 8.12 21.943 18.556 31.266 31.018l0.824 1.103 1.331-0.35c7.481-1.967 19.498-3.007 34.753-3.007 39.685 0 74.146 6.412 75.876 10.577-1.975 15.618-25.808 32.316-47.476 33.183z" fill="#F27B4D" /><path d="M384.234 129.961c-6.869-4.122-39.341-11.407-60.45-11.678-17.86-0.229-38.468 2.748-37.323 8.014 2.939 13.518 26.332 32.973 51.978 31.599 25.645-1.373 51.265-24.653 45.795-27.935zM695.898 118.511c-21.109 0.271-53.581 7.556-60.45 11.678-5.47 3.282 20.15 26.561 45.795 27.935 25.645 1.374 49.039-18.081 51.978-31.599 1.145-5.267-19.463-8.243-37.323-8.014z" fill="#FFFBD6" /><path d="M510.683 911.895c-2.377-0.952-7.641-0.368-8.014 1.145-0.521 2.114 3.802 6.305 7.098 6.64 3.27 0.333 4.932-2.667 4.58-4.122-0.415-1.714-1.842-2.934-3.664-3.663zM473.167 942.167l4 11.083 16.416-2.917-1.5-9.083zM442.308 991.472l1.745 12.8 18.364-1.772-1.75-11.25zM546.543 945.727l0.898 7.007 13.932 0.211-0.123-8.945zM588.487 986.336l-17.987 3.997V1001l18.25-1.833z" fill="#953249" /><path d="M558.07 310.401s9.365-10.327 20.341-6.683 30.415 26.032 30.415 26.032-20.807 9.028-34.411 3.887c-13.603-5.141-16.345-23.236-16.345-23.236z" fill="#1FCA44" /><path d="M555.054 316.506c2.318-2.402 18.423-12.654 19.626-13.679 1.336-0.356 5.024 1.419 5.024 1.419l-9.756 10.826s3.688 0.872 6.682 4.009c7.345 7.695 7.886 16.191 7.886 16.191s-1.872-0.019-3.208-0.287c-8.421-1.737-21.129-7.65-26.254-18.479z" fill="#1FAB44" /><path d="M553.194 319.88s12.856-5.392 21.258 2.555c8.402 7.947 16.537 36.459 16.537 36.459s-22.672-0.628-32.821-11.044-4.974-27.97-4.974-27.97z" fill="#1FCA44" /><path d="M560.591 326.031c2.495 8.91 30.398 32.863 30.398 32.863s-4.813-16.298-8.613-23.641c-7.173-17.597-15.904-14.924-21.785-9.222z" fill="#85FF4D" /><path d="M565.598 187.731c-21.066 37.552-10.544 128.775-10.544 128.775s61.044-42.998 64.93-49.872c3.886-6.874 28.613-99.636 28.613-99.636s-61.598-17.418-82.999 20.733zM375.408 168.702s23.181 92.189 29.465 98.444c6.284 6.255 68.656 46.534 68.656 46.534s5.97-88.507-15.096-126.06c-21.402-38.151-83.025-18.918-83.025-18.918z" fill="#FFFBD6" /><path d="M467.547 314.016c0.409-14.242 30.047-30.71 49.903-29.309 23.076 1.628 40.509 26.605 41.272 32.973 1.399 11.678-7.173 62.828-17.488 72.128-12.029 10.846-29.38 8.701-37.775 2.748-13.893-9.855-37.307-29.997-35.912-78.54z" fill="#F34A55" /><path d="M494.52 327.754a5.953 8.243 0 1 0 11.906 0 5.953 8.243 0 1 0-11.906 0Z" fill="#C7242A" /><path d="M525.434 328.67a5.953 8.243 0 1 0 11.906 0 5.953 8.243 0 1 0-11.906 0Z" fill="#C7242A" /><path d="M425.873 202.95c-8.229 0.549-10.606 8.772-10.606 17.372 2.194 0.183 4.206 15.909 12.724 16.758 6.18 0.616 11.78-5.238 15.071-1.58 2.012-14.081-9.744-33.047-17.189-32.55zM597.518 202.95c-7.445-0.496-19.2 18.469-17.189 32.549 3.292-3.657 8.891 2.196 15.071 1.58 8.518-0.849 10.529-16.575 12.723-16.758 0.001-8.599-2.376-16.823-10.605-17.371z" fill="#343A5A" /><path d="M426.422 227.91a2.743 3.566 0 1 0 5.486 0 2.743 3.566 0 1 0-5.486 0Z" fill="#FFFFFF" /><path d="M593.558 227.636a2.743 3.566 0 1 0 5.486 0 2.743 3.566 0 1 0-5.486 0Z" fill="#FFFFFF" /><path d="M558.723 317.679c-0.161-1.343-1.071-3.518-2.611-6.123 0.11 1.585 0.173 3.188 0.173 4.811 0 28.501-17.271 51.606-38.577 51.606-21.305 0-43.686-14.93-43.686-43.431 0-7.58 1.533-17.883 8.535-29.429-8.595 5.505-14.823 12.431-15.009 18.902-1.395 48.543 22.019 68.685 35.913 78.539 8.394 5.953 25.745 8.098 37.775-2.748 10.314-9.299 18.886-60.449 17.487-72.127z" fill="#F33F4B" /></svg>